<?xml version="1.0" encoding="UTF-8"?>
<svg id="Layer_1" xmlns="http://www.w3.org/2000/svg" version="1.1" viewBox="0 0 842 842">
  <!-- Generator: Adobe Illustrator 30.1.0, SVG Export Plug-In . SVG Version: 2.1.1 Build 136)  -->
  <defs>
    <style>
      .st0 {
        font-family: Poppins-Regular, Poppins;
        font-size: 31.8px;
        letter-spacing: .1em;
      }

      .st0, .st1, .st2, .st3 {
        isolation: isolate;
      }

      .st0, .st1, .st4, .st3 {
        fill: #fff;
      }

      .st1 {
        font-family: Poppins-SemiBold, Poppins;
        font-size: 77.6px;
        font-weight: 600;
      }

      .st3 {
        font-family: PasseroOne-Regular, 'Passero One';
        font-size: 144.8px;
      }
    </style>
  </defs>
  <g id="Layer_2">
    <g>
      <path class="st4" d="M202.2,253.6c-.8-1.3,83.4-39.1,159.7-131.8,10.3-12.5,18.7-23.9,25.1-33.1.1-.5.5-1.2,1.2-1.6,3.5-2.6,12.5,3.9,15.3,5.9,3.9,2.8,8.4,6.9,9.3,8.4,9.2,16.9-209.1,154.3-210.4,152.1h-.1Z"/>
      <path class="st4" d="M196.4,253.7c-1-1.3,81.1-54.3,147.2-166.9,8.9-15.3,16-29,21.3-39.8,0-.5.4-1.3.9-1.9,3.2-3.4,13.6,2.7,16.7,4.5,4.4,2.6,9.7,6.5,10.9,8.1,11.9,17.6-195.3,198.2-196.8,196h-.1Z"/>
      <path class="st4" d="M196.4,233.4c1.2.3,17.8-62.6,78.7-130,8.3-9.2,15.9-16.7,22-22.6.4-.3.8-.5,1-1,1.6-2.8-4.9-7.6-6.9-9.1-2.7-2.1-6.7-4.4-8-4.7-14.6-3.1-88.7,166.9-86.9,167.3h0Z"/>
      <path class="st4" d="M212.7,204.8c1,.5,30.3-57.7,103.4-111.2,10-7.2,18.9-13.2,26.1-17.7.4,0,.9-.4,1.3-.8,2.1-2.5-3.4-8.5-4.9-10.3-2.3-2.6-5.7-5.7-6.9-6.2-13.7-6.1-120.8,145.5-119,146.2h-.1Z"/>
      <path class="st4" d="M196.4,233.4c.9,0,1-49.8,33.7-112.5,4.4-8.5,8.7-15.8,12.2-21.3.3-.3.5-.5.6-1,.6-2.5-5.3-4.5-7-5.2-2.5-.9-5.9-1.8-7-1.7-11.6.9-33.9,141.8-32.5,141.7h-.1Z"/>
      <path class="st4" d="M192.5,245.2c.6-.3-10.1-36.9.5-90.9,1.4-7.4,3-13.7,4.4-18.7,0-.3.3-.5.3-.9,0-1.9-4.9-2.1-6.3-2.1-2.1,0-4.8.1-5.6.5-8.4,3.6,5.7,112.4,6.7,112h0Z"/>
      <path class="st4" d="M191.4,261.7c-.5-1.7,96.2-29.6,196.7-123.7,13.6-12.8,25-24.4,33.6-34,.3-.5.8-1.3,1.6-1.7,4.3-2.5,12.3,7.1,14.6,10,3.4,4,7.4,9.8,7.9,11.8,5.8,21.7-253.6,140.6-254.3,137.7h0Z"/>
      <path class="st4" d="M211.8,264.7c-.5-1.8,104.9-24.8,217.5-116.5,15.3-12.4,27.9-23.9,37.8-33.2.4-.5.9-1.3,1.7-1.7,4.8-2.2,12.9,8.1,15.4,11.2,3.5,4.4,7.5,10.6,8,12.8,5.3,23-279.4,130.3-280.2,127.4h-.1Z"/>
      <path class="st4" d="M265.5,268c-.4-1.8,105.6-21.2,221.2-109,15.6-11.9,28.7-23,38.9-31.9.4-.5.9-1.2,1.8-1.6,4.8-2.1,12.5,8.5,15,11.8,3.4,4.5,7.1,10.9,7.5,13.1,4.5,23.1-283.7,120.8-284.3,117.8h-.1Z"/>
      <path class="st4" d="M248.8,273.7c0-1.8,107.8-1.4,237.7-66.3,17.6-8.8,32.5-17.2,44.1-24.2.4-.5,1.2-1,2.1-1.2,5-1.2,10.7,10.7,12.5,14.4,2.5,5,5,12,5,14.2.1,23.7-301,66.3-301.3,63.2h-.1Z"/>
      <path class="st4" d="M260.4,286.2c0-1.8,107.5,8.5,242.7-44.4,18.4-7.1,33.9-14.2,46.2-20,.5-.4,1.2-.9,2.1-1,5.2-.6,9.8,11.6,11.1,15.4,1.9,5.3,3.9,12.4,3.6,14.6-1.9,23.5-305.8,38.5-305.8,35.4h.1Z"/>
      <path class="st4" d="M299.1,283.8c.3-1.8,110.7,23.3,256.7-12.8,19.8-4.9,36.7-10.1,50-14.4.5-.4,1.4-.8,2.3-.8,5.4,0,8.9,13.3,10,17.3,1.4,5.7,2.7,13.3,2.3,15.5-4.5,23.9-321.7-1.7-321.2-4.9h-.1Z"/>
      <path class="st4" d="M282.3,281c.6-1.7,100.2,39.8,244.9,29.1,19.7-1.4,36.6-3.6,50-5.6.6-.3,1.4-.5,2.3-.4,5.2.9,5.9,14.1,6.1,18,.3,5.7,0,13.1-.8,15-8.8,21.9-303.6-53.3-302.6-56.1Z"/>
      <path class="st4" d="M269.7,259.9c1-1.6,88.4,61.5,231.8,84.2,19.4,3.1,36.5,4.8,49.9,5.9.6,0,1.6-.1,2.3.1,4.8,2.1,2.6,15,1.8,18.9-1,5.6-3,12.7-4.1,14.5-13.6,19.3-283.6-121-281.9-123.6h.1Z"/>
      <path class="st4" d="M333.1,302.4c.8-1,55.6,50.4,153.1,78.9,13.2,3.9,24.8,6.6,34.1,8.5.4,0,1,0,1.7.4,3.1,1.8.3,10.6-.5,13.2-1.2,3.7-3.2,8.5-4.3,9.6-11.2,12.2-185.4-109-184-110.7h-.1Z"/>
      <path class="st4" d="M325.9,302.4c.9-.9,47.6,58.1,139.8,100.6,12.5,5.8,23.7,10.2,32.5,13.4.4,0,1,.1,1.6.5,2.8,2.3-1.3,10.5-2.5,13.1-1.8,3.5-4.5,7.9-5.7,8.8-12.9,10.3-167.5-135.1-165.8-136.5h.1Z"/>
      <path class="st4" d="M325.3,311.1c1.2-.6,36.5,65.7,119.6,124,11.2,7.9,21.5,14.2,29.6,19.1.4,0,1,.4,1.4.9,2.5,2.7-3.1,10.1-4.8,12.4-2.3,3.1-5.8,7-7.1,7.6-14.6,7.9-140.6-162.9-138.6-164h-.1Z"/>
      <path class="st4" d="M348.1,368.4c.9-.4,21.5,49.3,80,98.8,7.9,6.7,15.1,12.3,21.1,16.4.4.1.8.4,1,.8,1.6,2.2-3.5,6.6-5,8-2.2,1.9-5.3,4.1-6.3,4.5-12.2,3.7-92.3-127.9-90.8-128.4h0Z"/>
      <path class="st4" d="M313.7,113.4c-28.3,18-64.3,47.5-87.7,93.9-3.4,6.6-6.2,13.2-8.7,19.5,32.1-37.8,64.3-75.6,96.3-113.4Z"/>
      <path class="st4" d="M547.4,459.3c1.9,12.9-17.5,30.6-35.8,30.4-6.7,0-11.9-2.6-14.9-4.3,13.3-7.5,19.9-16,23.5-23,4.4-8.5,4.5-15.1,9.2-16.8,6.2-2.2,16.7,5.2,18,13.7h0Z"/>
    </g>
    <g class="st2">
      <text class="st1" transform="translate(219.5 734.1)"><tspan x="0" y="0">miniaturan</tspan></text>
    </g>
    <g class="st2">
      <text class="st3" transform="translate(218.7 661.5)"><tspan x="0" y="0">AFRIKA</tspan></text>
    </g>
    <g class="st2">
      <text class="st0" transform="translate(223.4 780.8) scale(1 1)"><tspan x="0" y="0">POR UN ÁFRICA MEJOR</tspan></text>
    </g>
  </g>
</svg>