<?xml version="1.0" encoding="UTF-8"?>
<svg id="Layer_1" xmlns="http://www.w3.org/2000/svg" version="1.1" viewBox="0 0 842 842">
  <!-- Generator: Adobe Illustrator 30.1.0, SVG Export Plug-In . SVG Version: 2.1.1 Build 136)  -->
  <defs>
    <style>
      .st0 {
        font-family: Syncopate-Bold, Syncopate;
        font-size: 62px;
        font-weight: 700;
        letter-spacing: 0em;
      }

      .st0, .st1 {
        fill: #fff;
      }

      .st2 {
        display: none;
      }
    </style>
  </defs>
  <text class="st0" transform="translate(49.1 551.2)"><tspan x="0" y="0" xml:space="preserve">Grand River  Tech</tspan></text>
  <g>
    <path class="st1" d="M154.8,608.2v-20.4h-7.9v-2h18.1v2h-7.9v20.4h-2.4Z"/>
    <path class="st1" d="M183.4,608.2v-22.4h15.4v2h-13v18.3h13.5v2h-15.8ZM185.5,597.8v-2h11.8v2h-11.8Z"/>
    <path class="st1" d="M229,608.3c-1.7,0-3.2-.3-4.7-.8-1.4-.6-2.7-1.4-3.7-2.4-1-1-1.9-2.2-2.4-3.6-.6-1.4-.9-2.9-.9-4.5s.3-3.2.9-4.5c.6-1.4,1.4-2.6,2.5-3.6,1.1-1,2.3-1.8,3.7-2.4s3-.8,4.7-.8,3.1.3,4.6.8c1.4.5,2.6,1.4,3.6,2.4l-1.5,1.5c-.9-.9-1.9-1.6-3-2-1.1-.4-2.3-.6-3.6-.6s-2.6.2-3.7.7c-1.2.5-2.2,1.1-3,2s-1.5,1.8-2,2.9c-.5,1.1-.7,2.4-.7,3.7s.2,2.6.7,3.7c.5,1.1,1.1,2.1,2,2.9.9.8,1.9,1.5,3,2s2.4.7,3.7.7,2.5-.2,3.6-.6c1.1-.4,2.1-1.1,3-2l1.5,1.5c-1,1.1-2.2,1.9-3.6,2.5-1.4.6-3,.8-4.6.8Z"/>
    <path class="st1" d="M256.5,608.2v-22.4h2.4v22.4h-2.4ZM258.6,597.8v-2.1h14.5v2.1h-14.5ZM272.9,608.2v-22.4h2.3v22.4h-2.3Z"/>
    <path class="st1" d="M320,608.2v-22.4h2l10.2,17.5h-1l10.1-17.5h2v22.4h-2.3v-18.9h.5l-9.3,16h-1.1l-9.4-16h.6v18.9h-2.3Z"/>
    <path class="st1" d="M361.5,608.2l10.2-22.4h2.3l10.2,22.4h-2.5l-9.4-21h1l-9.4,21h-2.5ZM365.5,602.2l.7-1.9h13l.7,1.9h-14.4Z"/>
    <path class="st1" d="M402.5,608.2v-22.4h9.1c2.4,0,4.5.5,6.3,1.4,1.8,1,3.2,2.3,4.2,4,1,1.7,1.5,3.6,1.5,5.8s-.5,4.1-1.5,5.8c-1,1.7-2.4,3-4.2,4-1.8,1-3.9,1.4-6.3,1.4h-9.1ZM404.9,606.1h6.6c2,0,3.7-.4,5.2-1.2,1.5-.8,2.6-1.9,3.4-3.2.8-1.4,1.2-3,1.2-4.8s-.4-3.4-1.2-4.8c-.8-1.4-1.9-2.4-3.4-3.2-1.5-.8-3.2-1.2-5.2-1.2h-6.6v18.3Z"/>
    <path class="st1" d="M443.5,608.2v-22.4h15.4v2h-13v18.3h13.5v2h-15.8ZM445.6,597.8v-2h11.8v2h-11.8Z"/>
    <path class="st1" d="M508.6,608.3c-1.7,0-3.3-.3-4.8-.8s-2.7-1.2-3.5-2.1l.9-1.8c.8.8,1.9,1.4,3.2,1.9,1.3.5,2.7.8,4.2.8s2.6-.2,3.4-.5c.9-.4,1.5-.8,2-1.4.4-.6.6-1.3.6-2s-.3-1.6-.8-2.1c-.5-.5-1.2-1-2-1.3-.8-.3-1.7-.6-2.7-.8-1-.2-2-.5-2.9-.8s-1.9-.6-2.7-1.1-1.5-1-2-1.8c-.5-.7-.8-1.7-.8-2.9s.3-2.1.9-3.1c.6-.9,1.5-1.7,2.7-2.2,1.2-.6,2.8-.8,4.7-.8s2.5.2,3.7.5,2.3.8,3.2,1.5l-.8,1.9c-1-.6-2-1.1-3.1-1.4s-2.1-.4-3.1-.4-2.5.2-3.3.5c-.9.4-1.5.8-1.9,1.5s-.6,1.3-.6,2.1.3,1.6.8,2.1c.5.5,1.2,1,2,1.2s1.7.6,2.7.8c1,.2,2,.5,2.9.8,1,.3,1.9.6,2.7,1.1s1.5,1,2,1.7.8,1.7.8,2.8-.3,2.1-.9,3c-.6.9-1.5,1.7-2.7,2.2s-2.8.8-4.7.8Z"/>
    <path class="st1" d="M536.6,608.2v-22.4h2.4v22.4h-2.4Z"/>
    <path class="st1" d="M560.8,608.2v-22.4h2l10.2,17.5h-1l10.1-17.5h2v22.4h-2.3v-18.9h.5l-9.3,16h-1.1l-9.4-16h.6v18.9h-2.3Z"/>
    <path class="st1" d="M605.9,608.2v-22.4h8.4c1.9,0,3.5.3,4.9.9s2.4,1.5,3.2,2.6,1.1,2.5,1.1,4.1-.4,2.9-1.1,4.1-1.8,2-3.2,2.6-3,.9-4.9.9h-7.1l1.1-1.1v8.2h-2.4ZM608.3,600.2l-1.1-1.2h7c2.2,0,3.9-.5,5.1-1.5,1.2-1,1.7-2.3,1.7-4.1s-.6-3.2-1.7-4.2c-1.2-1-2.9-1.5-5.1-1.5h-7l1.1-1.1v13.5Z"/>
    <path class="st1" d="M643.1,608.2v-22.4h2.4v20.4h12.5v2h-14.9Z"/>
    <path class="st1" d="M676.5,608.2v-22.4h15.4v2h-13v18.3h13.5v2h-15.8ZM678.6,597.8v-2h11.8v2h-11.8Z"/>
  </g>
  <g>
    <g>
      <g>
        <path class="st1" d="M228.8,416.7c108.4-.5,216.8-1,325.2-1.5,6.2,0,7,4.6.9,5.1-19.7,1.8-39.4,3.6-59.1,5.3-6.1.5-5.3,5.1.9,5.1h0c6,0,7,4.4,1.1,5.1-18,2.1-34.3,4-34.3,4,0,0-17.7,2-37.3,4.3-5.5.6-5.1,4.8.5,5.1,7.7.5,15.4.9,23.1,1.4,5.7.3,6,4.5.4,5.1l-60.5,6.1c-2,.2-4.1-.3-5.2-1.2-10.8-8.8-30.2-14.3-40.4-23.3-8.8-7.8-36-16.5-115.3-20.7Z"/>
        <path class="st1" d="M487.8,417.1c-89.1-.6-178.2-1.2-267.3-1.8-6.2,0-7,4.6-.9,5.1,19.2,1.7,38.4,3.5,57.7,5.2,6.1.5,5.3,5.1-.9,5.1s-7,4.4-1.1,5.1c18,2.1,34.3,4,34.3,4,0,0,17.7,2,37.3,4.3,5.5.6,5.1,4.8-.5,5.1-7.7.5-15.4.9-23.1,1.4-5.7.3-6,4.5-.4,5.1l57.7,5.8c3.7.4,12,.9,14.6-1.1,1.5-1.1.7-2.6.2-3.4-6.8-11.9-16.8-22.1-10.8-28,.7-.7,2-1.7,4.6-2.7l98.9-4.2c6.4-.3,6-5.1-.3-5.2Z"/>
      </g>
      <path class="st1" d="M394.5,422.9c-55,0-82.4,0-82.5.6,0,.8,40.3,2.8,85,2.6,36.2-.2,70-1.9,70-2.6,0-.6-24.2-.6-72.5-.6Z"/>
      <path class="st1" d="M384.6,435.6c-22.6,0-33.9,0-33.9.3,0,.4,16.6,1.4,35,1.3,14.9-.1,28.8-.9,28.8-1.3,0-.3-10-.3-29.8-.3Z"/>
      <path class="st1" d="M384,444c-15.2,0-22.8,0-22.8.2,0,.2,11.1.7,23.5.6,10,0,19.4-.5,19.4-.6,0-.1-6.7-.2-20.1-.2Z"/>
      <path class="st1" d="M390.4,452.1c-10.2,0-15.4,0-15.4,0,0,.1,7.5.4,15.8.4,6.7,0,13.1-.3,13-.4,0,0-4.5,0-13.5,0Z"/>
    </g>
    <g class="st2">
      <path class="st1" d="M450.1,261.8c5.6-10.2,8.8-22,8.8-34.5,0-39.6-32.1-71.6-71.6-71.6s-71.6,32.1-71.6,71.6,5,30,13.4,41.7c40.4-2.4,80.7-4.8,121.1-7.2Z"/>
      <path class="st1" d="M359.4,293.4c8.6,3.6,18,5.6,27.9,5.6s21.4-2.5,30.7-6.9c-19.5.4-39.1.8-58.6,1.3Z"/>
      <path class="st1" d="M338.2,278.8c.2.4.5.9.7,1.3,33.5-1.1,67.1-2.2,100.6-3.3.3-.4.5-.8.8-1.3-34,1.1-68.1,2.2-102.1,3.2Z"/>
    </g>
    <g>
      <path class="st1" d="M450.1,261.8c5.6-10.2,8.8-22,8.8-34.5,0-39.6-32.1-71.6-71.6-71.6s-71.6,32.1-71.6,71.6,5,30,13.4,41.7c40.4-2.4,80.7-4.8,121.1-7.2Z"/>
      <path class="st1" d="M359.4,293.4c8.6,3.6,18,5.6,27.9,5.6s21.4-2.5,30.7-6.9c-19.5.4-39.1.8-58.6,1.3Z"/>
      <path class="st1" d="M338.2,278.8c.2.4.5.9.7,1.3,33.5-1.1,67.1-2.2,100.6-3.3.3-.4.5-.8.8-1.3-34,1.1-68.1,2.2-102.1,3.2Z"/>
    </g>
    <path class="st1" d="M94.5,424.3c0-1.7,138.5-12.6,309.6-14.3,190.5-1.9,342.6,8.4,342.5,10.1,0,1.7-132.8-4.5-345.3-2.6-188,1.6-306.8,8.4-306.8,6.8Z"/>
    <path class="st1" d="M196.6,430.1c0-1.7,85.2-12.6,190.5-14.3,117.2-1.9,210.7,8.4,210.7,10.1,0,1.7-81.7-4.5-212.4-2.6-115.6,1.6-188.7,8.4-188.8,6.8Z"/>
    <path class="st1" d="M223.1,433.9c0-.8,68.9-6.3,154.1-7.2,94.8-1,170.5,4.2,170.5,5.1,0,.8-66.1-2.2-171.9-1.3-93.5.8-152.7,4.2-152.7,3.4Z"/>
    <path class="st1" d="M184.5,313.5c59,0,117.9.1,176.9.2-7,.2-31.3,1.9-50.5,20.8-8.5,8.4-13.2,17.5-15.8,23.9-.2,15-.4,29.9-.6,44.9h-45.1c0-15,.1-29.9.2-44.9-4.3-6.9-11.2-16.1-21.9-24.7-16.6-13.4-33.7-18.3-43.1-20.2Z"/>
    <path class="st1" d="M312.2,322.9c25.6-28.8,68.5-23.6,81.7-22,12.3,1.5,42.6,5.2,62.3,29.8,6.2,7.7,9.6,15.3,11.6,20.8-4.6-5.7-12-13.6-22.9-20.6-24.9-15.9-50.2-15.6-61.7-15.2-45.9,1.3-77.4,29.3-86.5,38,1.8-7.9,5.8-20,15.4-30.8Z"/>
    <path class="st1" d="M184.5,300.4v13.2c55.6,0,111.2,0,166.7.1,13-1.8,26-3.5,38.9-5.3,12.5,1.7,25,3.4,37.4,5.1,56.6,0,113.2,0,169.8.1v-20.3c-137.6,2.4-275.3,4.7-412.9,7.1Z"/>
    <path class="st1" d="M597.8,267.9c-137.8,5.3-275.5,10.6-413.3,15.9l-.2-4.2c137.8-8.2,275.7-16.5,413.5-24.7v13.1Z"/>
    <path class="st1" d="M597.6,286.5c-137.7,3-275.4,5.9-413.1,8.9,0-2.4-.1-4.8-.2-7.2,137.8-5.4,275.7-10.7,413.5-16.1,0,4.8-.1,9.6-.2,14.4Z"/>
    <path class="st1" d="M407.3,313.5c59,0,117.9.1,176.9.2-7,.2-31.3,1.9-50.5,20.8-8.5,8.4-13.2,17.5-15.8,23.9-.2,15-.4,29.9-.6,44.9h-45.1c0-15,.1-29.9.2-44.9-4.3-6.9-11.2-16.1-21.9-24.7-16.6-13.4-33.7-18.3-43.1-20.2Z"/>
  </g>
  <circle class="st1" cx="565.2" cy="545.8" r="5.4"/>
</svg>