<?xml version="1.0" encoding="UTF-8"?>
<svg id="Layer_1" xmlns="http://www.w3.org/2000/svg" version="1.1" viewBox="0 0 936.4 841.9">
  <!-- Generator: Adobe Illustrator 30.2.1, SVG Export Plug-In . SVG Version: 2.1.1 Build 1)  -->
  <defs>
    <style>
      .st0 {
        fill: #fff;
      }
    </style>
  </defs>
  <g>
    <path class="st0" d="M460.1,114L184.9,389.2l-76-76c46.1-41.5,92.3-83.1,138.4-124.6,45.6-50.2,91.2-100.4,136.7-150.5,25.3,25.3,50.7,50.7,76,76Z"/>
    <path class="st0" d="M324.9,549.2c-34.4-42.6-68.7-85.2-103.1-127.8-40.8-33.3-81.7-66.6-122.5-100,27.8-24.5,55.6-48.9,83.4-73.4,73.6,74.2,147.2,148.4,220.8,222.6l-78.6,78.6Z"/>
    <path class="st0" d="M622.7,518L338.1,233.4l78.6-78.6c43,49,86,98,128.9,147,51.9,45.9,103.8,91.7,155.7,137.6-26.2,26.2-52.4,52.4-78.6,78.6Z"/>
    <rect class="st0" x="253" y="340.3" width="306.5" height="106.6" transform="translate(971.9 391.9) rotate(135.7)"/>
    <path class="st0" d="M328.1,353.7l-34.7-34.7c7.2-5.6,14.4-11.2,21.7-16.8,6.2-7.8,12.3-15.5,18.5-23.3,11.6,11.6,23.1,23.1,34.7,34.7-7.5,5.4-15.1,10.8-22.6,16.2-5.8,8-11.7,16-17.5,23.9Z"/>
    <path class="st0" d="M496.2,196.4l-34.7-34.7c6.6-4.4,14.4-10.3,22.3-18.3,7.7-7.8,13.5-15.4,17.8-21.9,11.6,11.6,23.1,23.1,34.7,34.7-8.2,5.2-16.4,10.4-24.6,15.6-5.2,8.2-10.4,16.4-15.6,24.6Z"/>
  </g>
  <g>
    <path class="st0" d="M132.4,656.8v66.2h-21.6v-57.7l4.1.5-22.2,57.1h-22.5l-22.2-56.9,4.1-.6v57.5h-21.6v-66.2h35.2l19.8,53.9h-7.9l19.6-53.9h35.2Z"/>
    <path class="st0" d="M164.9,692.7c0,2.4.4,4.5,1.3,6.2.9,1.7,2.2,3.1,3.9,4,1.8.9,4,1.4,6.8,1.4s5.1-.5,6.9-1.4c1.8-.9,3.1-2.3,3.9-4,.8-1.8,1.2-3.9,1.2-6.3v-35.8h22.8v37.1c0,6.2-1.4,11.6-4.3,16.2-2.9,4.6-6.9,8.2-12.1,10.7-5.2,2.6-11.3,3.8-18.3,3.8s-13-1.3-18.2-3.8c-5.2-2.6-9.3-6.1-12.2-10.7-2.9-4.6-4.4-10-4.4-16.2v-37.1h22.8v35.8Z"/>
    <path class="st0" d="M219.3,701.3h23.1c.2,1.3.9,2.4,2,3.3,1.1.9,2.6,1.6,4.6,2.1,1.9.5,4.3.8,7,.8s6.3-.4,8.3-1.1c2-.7,3-1.9,3-3.4s-.6-2-1.7-2.7c-1.1-.7-3.4-1.2-6.9-1.5l-10.9-.7c-9.9-.6-17.1-2.8-21.5-6.4-4.4-3.6-6.6-8.3-6.6-14.2s1.4-9.1,4.2-12.4c2.8-3.3,6.8-5.8,11.9-7.4,5.1-1.6,11-2.5,17.9-2.5s12.6.9,17.7,2.8c5.1,1.9,9.2,4.5,12.3,7.8,3,3.4,4.7,7.3,5,11.7h-23.1c-.2-1.1-.8-2-1.7-2.7-1-.8-2.3-1.4-4.1-1.8-1.8-.4-3.9-.6-6.4-.6s-5.8.3-7.6,1c-1.9.6-2.8,1.7-2.8,3.2s.5,1.9,1.6,2.6c1.1.7,3.2,1.2,6.3,1.4l12.4.8c6.5.4,11.7,1.4,15.7,2.9,4,1.5,6.9,3.6,8.8,6.2,1.9,2.6,2.8,5.9,2.8,9.8s-1.4,9.2-4.3,12.8c-2.9,3.7-6.9,6.5-12.1,8.5-5.2,2-11.3,3-18.2,3s-13.5-1-18.9-2.9c-5.4-1.9-9.6-4.7-12.7-8.2-3-3.5-4.6-7.6-4.7-12.3Z"/>
    <path class="st0" d="M322.6,690l-4.1,24.6-8.7-9.5h50.2v18h-64.1l4.9-33.1-4.9-33.1h63.7v18h-49.8l8.7-9.5,4.1,24.6ZM356.9,682.1v15.7h-49.9v-15.7h49.9Z"/>
    <path class="st0" d="M451.7,706.5l-6.2,1.5v-51.1h22.1v66.2h-28.5l-32.8-51,6.2-1.5v52.5h-22.1v-66.2h29.4l32,49.6Z"/>
    <path class="st0" d="M516,724.6c-8.1,0-15.1-1.4-21.1-4.3-6-2.9-10.7-6.9-14.1-12.1s-5-11.3-5-18.2,1.7-13,5-18.2c3.4-5.2,8-9.3,14.1-12.1,6-2.9,13.1-4.3,21.1-4.3s15.1,1.4,21.1,4.3c6,2.9,10.7,6.9,14.1,12.1,3.4,5.2,5,11.3,5,18.2s-1.7,13-5,18.2c-3.4,5.2-8,9.3-14.1,12.1-6,2.9-13.1,4.3-21.1,4.3ZM516,704.3c3.6,0,6.7-.6,9.3-1.7,2.6-1.1,4.6-2.8,6-4.9,1.4-2.1,2.1-4.7,2.1-7.7s-.7-5.6-2.1-7.7c-1.4-2.1-3.4-3.8-6-4.9-2.6-1.1-5.7-1.7-9.3-1.7s-6.7.6-9.3,1.7c-2.6,1.1-4.6,2.8-6,4.9-1.4,2.1-2.1,4.7-2.1,7.7s.7,5.6,2.1,7.7c1.4,2.1,3.4,3.8,6,4.9,2.6,1.1,5.7,1.7,9.3,1.7Z"/>
    <path class="st0" d="M564.4,656.8h22.8v66.2h-22.8v-66.2Z"/>
    <path class="st0" d="M613.4,685.2h22.2c2.2,0,4-.5,5.2-1.6,1.2-1.1,1.9-2.6,1.9-4.6s-.6-3.5-1.9-4.6c-1.2-1.1-3-1.6-5.2-1.6h-25.4l10.2-10.2v60.5h-22.8v-66.2h41.5c5.3,0,9.9.9,13.9,2.8,4,1.9,7.1,4.4,9.3,7.7,2.2,3.3,3.3,7.2,3.3,11.7s-1.1,8.2-3.3,11.5-5.3,5.9-9.3,7.7c-4,1.8-8.6,2.7-13.9,2.7h-25.8v-15.8ZM621.2,692.1h25.2l22,31h-26l-21.1-31Z"/>
    <path class="st0" d="M772,694.4c-.7,6.1-2.8,11.4-6.2,15.9-3.4,4.5-8,8.1-13.6,10.6s-12.1,3.8-19.4,3.8-14.8-1.4-20.7-4.3c-5.9-2.9-10.5-6.9-13.7-12.1s-4.9-11.3-4.9-18.2,1.6-13,4.9-18.2c3.3-5.2,7.8-9.3,13.7-12.1s12.8-4.3,20.7-4.3,13.8,1.3,19.4,3.8c5.7,2.5,10.2,6.1,13.6,10.6,3.4,4.5,5.5,9.8,6.2,15.9h-22.9c-.5-2.3-1.5-4.3-2.9-5.9-1.4-1.6-3.3-2.9-5.5-3.7-2.3-.9-4.9-1.3-8-1.3s-6.3.6-8.8,1.8c-2.4,1.2-4.3,3-5.6,5.3-1.3,2.3-1.9,5-1.9,8.2s.6,5.9,1.9,8.2c1.3,2.3,3.2,4,5.6,5.3,2.4,1.2,5.4,1.9,8.8,1.9s5.7-.4,8-1.2c2.3-.8,4.1-2,5.5-3.6,1.4-1.6,2.4-3.6,2.9-6h22.9Z"/>
    <path class="st0" d="M817.5,724.6c-8.1,0-15.1-1.4-21.1-4.3-6-2.9-10.7-6.9-14.1-12.1s-5-11.3-5-18.2,1.7-13,5-18.2c3.4-5.2,8-9.3,14.1-12.1,6-2.9,13.1-4.3,21.1-4.3s15.1,1.4,21.1,4.3c6,2.9,10.7,6.9,14.1,12.1,3.4,5.2,5,11.3,5,18.2s-1.7,13-5,18.2c-3.4,5.2-8,9.3-14.1,12.1-6,2.9-13.1,4.3-21.1,4.3ZM817.5,704.3c3.6,0,6.7-.6,9.3-1.7,2.6-1.1,4.6-2.8,6-4.9,1.4-2.1,2.1-4.7,2.1-7.7s-.7-5.6-2.1-7.7c-1.4-2.1-3.4-3.8-6-4.9-2.6-1.1-5.7-1.7-9.3-1.7s-6.7.6-9.3,1.7c-2.6,1.1-4.6,2.8-6,4.9-1.4,2.1-2.1,4.7-2.1,7.7s.7,5.6,2.1,7.7c1.4,2.1,3.4,3.8,6,4.9,2.6,1.1,5.7,1.7,9.3,1.7Z"/>
    <path class="st0" d="M873.3,724.1c-2.2,0-4.3-.5-6.1-1.6-1.9-1.1-3.3-2.5-4.4-4.4-1.1-1.9-1.6-3.9-1.6-6.1s.5-4.4,1.6-6.2c1.1-1.8,2.5-3.3,4.4-4.3,1.9-1.1,3.9-1.6,6.1-1.6s4.4.5,6.2,1.6c1.8,1.1,3.3,2.5,4.3,4.3,1.1,1.8,1.6,3.9,1.6,6.2s-.5,4.3-1.6,6.1c-1.1,1.9-2.5,3.3-4.3,4.4-1.8,1.1-3.9,1.6-6.2,1.6Z"/>
  </g>
  <g>
    <path class="st0" d="M52.5,776.1c-.2,1.6-.7,2.9-1.6,4.1s-2.1,2.1-3.6,2.8c-1.5.7-3.2,1-5.1,1s-3.9-.4-5.5-1.2c-1.6-.8-2.8-1.9-3.7-3.3-.9-1.4-1.3-3.1-1.3-5s.4-3.6,1.3-5c.9-1.4,2.1-2.5,3.7-3.3,1.6-.8,3.4-1.2,5.5-1.2s3.6.3,5.1,1c1.5.7,2.7,1.6,3.6,2.7s1.5,2.6,1.6,4.1h-4.2c-.2-.9-.5-1.6-1.1-2.2-.5-.6-1.2-1.1-2.1-1.5-.9-.3-1.8-.5-3-.5s-2.4.2-3.3.7c-.9.5-1.7,1.2-2.2,2.1-.5.9-.8,1.9-.8,3.2s.3,2.3.8,3.2c.5.9,1.2,1.6,2.2,2.1.9.5,2.1.7,3.3.7s2.1-.2,3-.5c.8-.3,1.5-.8,2.1-1.4.5-.6.9-1.4,1.1-2.3h4.2Z"/>
    <path class="st0" d="M64.7,773.4h7.1c.9,0,1.7-.2,2.2-.6.5-.4.8-1,.8-1.8s-.3-1.4-.8-1.8c-.5-.4-1.3-.6-2.2-.6h-7.7l1.9-2.1v17.2h-4.2v-18.4h10.5c1.3,0,2.5.2,3.5.7,1,.5,1.8,1.1,2.4,2,.6.9.9,1.8.9,3s-.3,2.1-.9,3c-.6.9-1.4,1.5-2.4,2-1,.5-2.2.7-3.5.7h-7.6v-3.2ZM67.9,775h4.8l6.9,8.6h-4.9l-6.8-8.6Z"/>
    <path class="st0" d="M100.6,765.2l8.6,18.4h-4.4l-7.5-16.7h1.4l-7.5,16.7h-4.4l8.6-18.4h5.3ZM91.4,779.7v-3.4h12.8v3.4h-12.8Z"/>
    <path class="st0" d="M133.6,765.2v3.6h-13.7l2.1-2.1v16.9h-4.2v-18.4h15.7ZM119.8,773h13.3v3.6h-13.3v-3.6Z"/>
    <path class="st0" d="M141.5,765.2h18.8v3.7h-18.8v-3.7ZM148.9,767.1h4.1v16.5h-4.1v-16.5Z"/>
    <path class="st0" d="M174.1,774.4l-1.2,7.8-1.8-2.1h14.2v3.5h-16.6l1.4-9.2-1.4-9.2h16.4v3.5h-14.1l1.8-2.1,1.2,7.8ZM184.5,772.8v3.2h-13.2v-3.2h13.2Z"/>
    <path class="st0" d="M203.8,765.2c2.1,0,4,.4,5.6,1.2s2.9,1.8,3.8,3.2c.9,1.4,1.3,3,1.3,4.8s-.4,3.4-1.3,4.8c-.9,1.4-2.2,2.5-3.8,3.2s-3.5,1.2-5.6,1.2h-8.7v-18.4h8.7ZM199.2,782l-2.1-2h7c1.2,0,2.3-.2,3.3-.7s1.7-1.1,2.2-1.9.8-1.8.8-2.9-.3-2.1-.8-2.9c-.5-.8-1.2-1.5-2.2-1.9s-2-.7-3.3-.7h-7l2.1-2v15.1Z"/>
    <path class="st0" d="M237,765.2h4.2v18.4h-4.2v-18.4Z"/>
    <path class="st0" d="M268.6,780.9l-1.4.2v-15.9h4v18.4h-5.3l-11.8-15.9,1.4-.2v16.1h-4v-18.4h5.4l11.6,15.6Z"/>
    <path class="st0" d="M293.5,777.6h4.2c0,.6.4,1.2.8,1.6.4.5,1.1.8,1.8,1.1.8.3,1.6.4,2.6.4,1.5,0,2.6-.2,3.4-.6.8-.4,1.3-1,1.3-1.8s-.2-1-.7-1.4c-.5-.3-1.4-.6-2.7-.7l-3.7-.4c-2.4-.3-4.1-.8-5.2-1.7-1.1-.9-1.6-2.1-1.6-3.6s.4-2.2,1.1-3.1c.7-.8,1.7-1.5,3-1.9,1.3-.5,2.8-.7,4.6-.7s3.2.2,4.5.7,2.4,1.2,3.2,2.1c.8.9,1.2,1.9,1.3,3.1h-4.2c0-.5-.3-1-.7-1.4-.4-.4-1-.7-1.7-.9-.7-.2-1.5-.3-2.5-.3s-2.4.2-3.2.6c-.8.4-1.2.9-1.2,1.7s.2,1,.7,1.3,1.3.5,2.5.7l3.9.5c1.7.2,3.1.5,4.1.9s1.7.9,2.2,1.6c.4.7.6,1.5.6,2.6s-.4,2.3-1.1,3.2c-.7.9-1.8,1.6-3.1,2.1-1.3.5-2.9.8-4.7.8s-3.4-.3-4.8-.8c-1.4-.5-2.5-1.3-3.3-2.2-.8-1-1.2-2.1-1.3-3.3Z"/>
    <path class="st0" d="M321.3,765.2h4.2v18.4h-4.2v-18.4ZM323.6,772.5h14.3v3.7h-14.3v-3.7ZM336,765.2h4.2v18.4h-4.2v-18.4Z"/>
    <path class="st0" d="M362.8,765.2l8.6,18.4h-4.4l-7.5-16.7h1.4l-7.5,16.7h-4.4l8.6-18.4h5.3ZM353.7,779.7v-3.4h12.8v3.4h-12.8Z"/>
    <path class="st0" d="M388.8,765.2c2.1,0,4,.4,5.6,1.2s2.9,1.8,3.8,3.2c.9,1.4,1.3,3,1.3,4.8s-.5,3.4-1.3,4.8c-.9,1.4-2.2,2.5-3.8,3.2s-3.5,1.2-5.6,1.2h-8.7v-18.4h8.7ZM384.2,782l-2.1-2h7c1.2,0,2.3-.2,3.3-.7.9-.5,1.7-1.1,2.2-1.9s.8-1.8.8-2.9-.3-2.1-.8-2.9c-.5-.8-1.2-1.5-2.2-1.9-.9-.5-2-.7-3.3-.7h-7l2.1-2v15.1Z"/>
    <path class="st0" d="M418.9,784c-2.1,0-4-.4-5.6-1.2-1.6-.8-2.9-1.9-3.8-3.3-.9-1.4-1.3-3.1-1.3-5s.4-3.6,1.3-5c.9-1.4,2.2-2.5,3.8-3.3,1.6-.8,3.5-1.2,5.6-1.2s4,.4,5.6,1.2c1.6.8,2.9,1.9,3.8,3.3.9,1.4,1.3,3.1,1.3,5s-.5,3.6-1.3,5c-.9,1.4-2.2,2.5-3.8,3.3-1.6.8-3.5,1.2-5.6,1.2ZM418.9,780.3c1.3,0,2.5-.2,3.5-.7,1-.5,1.7-1.2,2.3-2,.5-.9.8-1.9.8-3.1s-.3-2.2-.8-3.1c-.5-.9-1.3-1.6-2.3-2-1-.5-2.1-.7-3.5-.7s-2.5.2-3.5.7c-1,.5-1.7,1.2-2.3,2-.5.9-.8,1.9-.8,3.1s.3,2.2.8,3.1,1.3,1.6,2.3,2c1,.5,2.1.7,3.5.7Z"/>
    <path class="st0" d="M461.1,781.9h-1.4l5.1-16.7h4.4l-5.9,18.4h-5.3l-5.8-16.3h1.8l-5.8,16.3h-5.3l-5.9-18.4h4.4l5.1,16.7h-1.4s5.8-16.7,5.8-16.7h4.4l5.8,16.7Z"/>
    <path class="st0" d="M476.4,777.6h4.2c0,.6.4,1.2.8,1.6.4.5,1.1.8,1.8,1.1.8.3,1.6.4,2.6.4,1.5,0,2.6-.2,3.4-.6s1.3-1,1.3-1.8-.2-1-.7-1.4c-.5-.3-1.4-.6-2.7-.7l-3.7-.4c-2.4-.3-4.1-.8-5.2-1.7-1.1-.9-1.6-2.1-1.6-3.6s.4-2.2,1.1-3.1c.7-.8,1.7-1.5,3-1.9,1.3-.5,2.8-.7,4.6-.7s3.2.2,4.5.7,2.4,1.2,3.2,2.1c.8.9,1.2,1.9,1.3,3.1h-4.2c0-.5-.3-1-.7-1.4-.4-.4-1-.7-1.7-.9s-1.5-.3-2.5-.3-2.4.2-3.2.6c-.8.4-1.2.9-1.2,1.7s.2,1,.7,1.3c.5.3,1.3.5,2.5.7l3.9.5c1.7.2,3.1.5,4.1.9s1.7.9,2.2,1.6c.4.7.6,1.5.6,2.6s-.4,2.3-1.1,3.2c-.7.9-1.8,1.6-3.1,2.1s-2.9.8-4.7.8-3.4-.3-4.8-.8c-1.4-.5-2.5-1.3-3.3-2.2-.8-1-1.2-2.1-1.3-3.3Z"/>
    <path class="st0" d="M503.2,787.1l2.3-4.8.2,1.5c-.4,0-.8-.1-1.2-.3-.4-.2-.7-.5-.9-.9-.2-.4-.3-.8-.3-1.2s.1-.8.3-1.2c.2-.4.5-.6.9-.8.4-.2.8-.3,1.2-.3s.9.1,1.2.3c.4.2.6.5.9.9.2.4.3.8.3,1.3s-.1.9-.3,1.4c-.2.5-.6,1.1-1,1.9l-1.5,2.4h-2.1Z"/>
    <path class="st0" d="M552,781.9h-1.4l5.1-16.7h4.4l-5.9,18.4h-5.3l-5.8-16.3h1.8l-5.8,16.3h-5.3l-5.9-18.4h4.4l5.1,16.7h-1.4s5.8-16.7,5.8-16.7h4.4l5.8,16.7Z"/>
    <path class="st0" d="M578.1,784c-2.1,0-4-.4-5.6-1.2-1.6-.8-2.9-1.9-3.8-3.3-.9-1.4-1.3-3.1-1.3-5s.4-3.6,1.3-5c.9-1.4,2.2-2.5,3.8-3.3,1.6-.8,3.5-1.2,5.6-1.2s4,.4,5.6,1.2c1.6.8,2.9,1.9,3.8,3.3.9,1.4,1.3,3.1,1.3,5s-.5,3.6-1.3,5c-.9,1.4-2.2,2.5-3.8,3.3-1.6.8-3.5,1.2-5.6,1.2ZM578.1,780.3c1.3,0,2.5-.2,3.5-.7,1-.5,1.7-1.2,2.3-2,.5-.9.8-1.9.8-3.1s-.3-2.2-.8-3.1c-.5-.9-1.3-1.6-2.3-2-1-.5-2.1-.7-3.5-.7s-2.5.2-3.5.7c-1,.5-1.7,1.2-2.3,2-.5.9-.8,1.9-.8,3.1s.3,2.2.8,3.1,1.3,1.6,2.3,2c1,.5,2.1.7,3.5.7Z"/>
    <path class="st0" d="M601.3,773.4h7.1c.9,0,1.7-.2,2.2-.6.5-.4.8-1,.8-1.8s-.3-1.4-.8-1.8c-.5-.4-1.3-.6-2.2-.6h-7.7l1.9-2.1v17.2h-4.2v-18.4h10.5c1.3,0,2.5.2,3.5.7,1,.5,1.8,1.1,2.4,2,.6.9.9,1.8.9,3s-.3,2.1-.9,3c-.6.9-1.4,1.5-2.4,2s-2.2.7-3.5.7h-7.6v-3.2ZM604.5,775h4.8l6.9,8.6h-4.9l-6.8-8.6Z"/>
    <path class="st0" d="M642.4,780.9l-1.4.2v-15.9h4v18.4h-5.3l-11.8-15.9,1.4-.2v16.1h-4v-18.4h5.4l11.6,15.6Z"/>
    <path class="st0" d="M668.3,765.2h4.2v18.4h-4.2v-18.4Z"/>
    <path class="st0" d="M700,780.9l-1.4.2v-15.9h4v18.4h-5.3l-11.8-15.9,1.4-.2v16.1h-4v-18.4h5.4l11.6,15.6Z"/>
    <path class="st0" d="M730,765.2v16.6l-1.9-1.8h13.8v3.7h-16.1v-18.4h4.2Z"/>
    <path class="st0" d="M750.9,765.2h4.2v18.4h-4.2v-18.4Z"/>
    <path class="st0" d="M784.1,775.6c0,1.1-.2,2.2-.6,3.2-.4,1-1,1.9-1.8,2.7s-1.7,1.4-2.8,1.8-2.4.7-3.9.7-2.8-.2-4-.7c-1.3-.4-2.3-1.1-3.3-1.9-.9-.8-1.7-1.8-2.2-3s-.8-2.5-.8-4,.3-2.8.8-4,1.3-2.2,2.2-3,2.1-1.4,3.3-1.9c1.3-.4,2.7-.6,4.2-.6s3.7.3,5.1.9c1.4.6,2.6,1.5,3.5,2.5.9,1.1,1.4,2.3,1.7,3.7h-4.2c-.2-.8-.5-1.4-1.1-1.9-.5-.5-1.2-1-2.1-1.3-.8-.3-1.8-.4-2.9-.4s-2.4.2-3.3.7-1.7,1.1-2.2,2-.8,2-.8,3.3.3,2.4.8,3.3c.5.9,1.3,1.6,2.3,2.1s2.2.7,3.5.7,2.5-.2,3.5-.6c1-.4,1.8-1,2.4-1.8.6-.8.9-1.7,1-2.7l1.8.2ZM776.1,777.3v-3h9.5v9.3h-3l-.6-7.5.9,1.2h-6.8Z"/>
    <path class="st0" d="M795.6,765.2h4.2v18.4h-4.2v-18.4ZM797.9,772.5h14.3v3.7h-14.3v-3.7ZM810.3,765.2h4.2v18.4h-4.2v-18.4Z"/>
    <path class="st0" d="M823.4,765.2h18.8v3.7h-18.8v-3.7ZM830.7,767.1h4.1v16.5h-4.1v-16.5Z"/>
    <path class="st0" d="M849.6,783.8c-.4,0-.8-.1-1.2-.3-.4-.2-.7-.5-.9-.9-.2-.4-.3-.8-.3-1.2s.1-.9.3-1.2c.2-.4.5-.7.9-.9.4-.2.8-.3,1.2-.3s.9.1,1.2.3c.4.2.7.5.9.9.2.4.3.8.3,1.2s-.1.8-.3,1.2c-.2.4-.5.7-.9.9-.4.2-.8.3-1.2.3Z"/>
  </g>
</svg>