<?xml version="1.0" encoding="UTF-8"?>
<svg xmlns="http://www.w3.org/2000/svg" version="1.1" viewBox="0 0 842 842">
  <!-- Generator: Adobe Illustrator 30.1.0, SVG Export Plug-In . SVG Version: 2.1.1 Build 136)  -->
  <defs>
    <style>
      .st0 {
        font-family: Poppins-Black, Poppins;
        font-size: 201.8px;
        font-weight: 800;
        letter-spacing: 0em;
      }

      .st0, .st1, .st2, .st3, .st4, .st5, .st6, .st7, .st8, .st9 {
        fill: #fff;
      }

      .st10, .st1, .st2, .st11 {
        isolation: isolate;
      }

      .st1 {
        font-family: Copperplate-Light, Copperplate;
        font-size: 66px;
        font-weight: 300;
      }

      .st1, .st2, .st3, .st6, .st7 {
        stroke: #fff;
        stroke-miterlimit: 10;
      }

      .st2 {
        font-family: Gobold, Gobold;
        font-size: 82.1px;
      }

      .st3 {
        stroke-width: 2px;
      }

      .st11, .st12 {
        display: none;
      }

      .st5 {
        font-family: Poppins-Regular, Poppins;
        font-size: 20.1px;
        letter-spacing: .6em;
      }

      .st6 {
        stroke-width: 6px;
      }

      .st8 {
        font-family: Vortigra, Vortigra;
        font-size: 123.2px;
      }

      .st9 {
        font-family: Poppins-Medium, Poppins;
        font-size: 51.3px;
        font-weight: 500;
      }
    </style>
  </defs>
  <g id="Layer_1" class="st12">
    <g>
      <g>
        <rect class="st4" x="442.4" y="132.4" width="73.9" height="141.4"/>
        <rect class="st4" x="442.4" y="281.9" width="73.9" height="138.1"/>
        <rect class="st4" x="320.4" y="281.9" width="73.9" height="138.1"/>
        <rect class="st4" x="386" y="299.4" width="73.9" height="38.9" transform="translate(741.7 -104.1) rotate(90)"/>
        <rect class="st4" x="242.2" y="339" width="73.9" height="88.2" transform="translate(662.3 104) rotate(90)"/>
        <rect class="st4" x="344.9" y="175.3" width="73.9" height="123" transform="translate(618.6 -145.1) rotate(90)"/>
        <circle class="st4" cx="368.5" cy="130.2" r="47.1"/>
      </g>
      <text class="st0" transform="translate(36.5 632.4)"><tspan x="0" y="0">titanFit</tspan></text>
      <text class="st9" transform="translate(50.9 709.1)"><tspan x="0" y="0">PUSH LIMITS. BUILD STRENGTH.</tspan></text>
    </g>
  </g>
  <g id="Layer_2" class="st12">
    <g>
      <text class="st5" transform="translate(194.8 735.1)"><tspan x="0" y="0">ELEGANCE IN EVERY DROP</tspan></text>
      <text class="st8" transform="translate(151.7 700.8)"><tspan x="0" y="0">verdana</tspan></text>
      <path class="st4" d="M429.3,394.2c6.7-2.2,36.1-10.8,66.3,4.2,19.2,9.6,29.4,24,33.5,30.1,8.4,12.2,16,29.6,12.3,32.4-3.3,2.5-14.6-8.1-22.7-14.6-17.1-13.7-44.5-28.4-89.8-33.5,19.2-1.1,45.9.5,71.3,15,20.4,11.6,32.8,27.4,35.1,25.4,2.4-2.1-8.3-23.5-25.8-38.2-26.7-22.4-61.4-22.5-80.2-20.8Z"/>
      <path class="st4" d="M329.7,558.6c3.9-5.7,12.4-16.4,26.6-20.4,7.5-2.1,13.7-1.6,23.1-.8,8.6.8,20.1,2.7,33.2,7.3-12.4-1.5-30.4-2.1-51.3,2.7-12.7,2.9-23.3,7.1-31.6,11.2Z"/>
      <path class="st4" d="M552.9,449.3c-1.5-5.2-15.4-51.1-55.5-68.8-22.4-9.9-31.4-1.5-54.4-13.9-21.6-11.7-32.9-29.7-39.3-39.9-17.5-28-20.3-55.1-24.3-95.4-2.3-22.8-1.3-43.8-1.2-45.7.2-3.7.4-6.7.6-8.7,11.9,3.6,19.2,1.8,23.7-.6,11.9-6.3,11.4-20.5,26.6-35.3,5.6-5.5,11.2-8.9,15-11-13.3,3.6-29.7,9.7-46.8,20.2-6.7,4.2-12.7,8.5-17.9,12.7,5-5.1,14.2-16.1,19.1-33,4.3-15,3.1-27.8,1.9-34.7-4.9,12.6-11.3,20.1-16.2,24.7-8.5,7.9-13.2,7.5-18.5,15.4-7.2,10.6-2.5,16.8-9.3,23.1-7.2,6.7-13.2.2-23.9,7.7-5,3.6-9.3,9-16.2,17.7-3.8,4.8-3,4.3-4.1,5.4-11.1,10.9-30,4.5-31.6,9.5-.5,1.6,1,3.3,3.6,6.2,9.1,10.1,22.6,13,27.8,14.1,2.1.5,4.3.8,7.5,2.1,0,0,5.8,2.3,10.5,6.2,9.4,7.7,11.7,26.5,11.8,27.8,2.9,25.4-1.4,47.6-2.3,51.9-8.8,43.7-23,65.3-11.6,78.1.4.4,1.6,1.8,4.9,3.9,22.9,14.5,55.2,6.5,74,3.1,34.5-6.3,71.6-13.1,100,3.9,32.1,19.2,44.4,63.6,36.2,70.2-8.6,6.9-32.4-30.9-85.6-43.7-12.3-3-69.8-15.1-113.7,20.2-23.2,18.6-32.2,42.1-35.5,50.9-15.2,41.1-3.9,77.5,0,88.7,8.5-17.7,22.9-40.1,46.8-47.4,17.1-5.3,31.3-.6,44.5,2.9,48.1,12.5,126,14.3,150.9-19.7,15.9-21.7,6.8-53.3,2.3-68.8ZM330.2,192.2c-7.1,4.9-10.7,8.5-11.6,7.7-1-.9,1.9-7.3,6.9-11.6,7.3-6.2,16.8-5.8,20.8-5.4-4.1,1.9-9.8,4.9-16.2,9.3ZM547.2,491.4c-11,7.4-33.4-25.3-74.1-39-6.2-2.1-51.6-16.6-96.7,6.6-35.5,18.3-51.2,49.9-56.4,61.9,4.6-15.5,18.7-54.9,55.6-73.2,40.6-20.2,97.2-9,131.6,16,14.8,10.8,32,29,40.1,24,4-2.4,4.1-9.6,3.6-15.2.9,6.6,1.2,15.5-3.6,18.8Z"/>
    </g>
  </g>
  <g id="Layer_3">
    <g id="Layer_7">
      <path class="st7" d="M351.2,265.2h0c-19.5,46.7-50.5,143.8-14.6,254.1,10.1,31.2,23.8,57.9,38,80.2-8.2-158.6,38.5-267.9,88-340.5,3.1-4.7,6.3-9.1,9.7-13.7"/>
      <path class="st7" d="M354.1,272.4h0c-17,43.4-44.6,133.8-15.4,237.2,8.2,29.2,19.6,54.3,31.4,75.3-5.2-148.2,35.8-249.9,78.8-317.2,2.8-4.3,5.6-8.5,8.3-12.7"/>
      <path class="st7" d="M486.2,292.5c14.8,1.3,29.5,2.7,44.3,4-98.7,127.9-136.1,191.1-148.2,223.7-2,5.3-3.7,11-4.3,10.8-3.2-.6,8.5-119.6,76.2-241.1,1.9-3.3,3.5-6,4.5-7.9"/>
      <path class="st7" d="M298.6,305.1c12.9-6.3,25.7-12.6,38.6-18.9-23.8,86-26.2,123.4-21.3,139.5.8,2.7,1.9,5.2,1.3,5.5-2.9,1.2-47.5-42.3-46.4-112.2,0-1.9,0-3.5.1-4.6"/>
      <path class="st6" d="M385.9,202.9c-1.9,17.8-9.1,31.6-14.8,40.2,25.3-1.8,50.4-3.5,75.7-5.2-2.1-16.5-4.2-32.9-6.3-49.4-18.3-1.7-36.4-3.3-54.6-5,.7,5.6.9,12.1,0,19.4h.1Z"/>
      <path class="st7" d="M266.2,345.4c-.6,19.1,5.3,30.3,11.2,37.1,3.3,3.9,6.9,6.6,6,8.2-2.2,4-28.5-3.1-51-10"/>
      <path class="st7" d="M508.4,343.5c-.6,19.1,5.3,30.3,11.2,37.1,3.3,3.9,6.9,6.6,6,8.2-2.2,4-28.5-3.1-51-10"/>
      <path class="st3" d="M377.9,208.4c-2.7,10.8-9,19.4-14.2,19.1-5.2-.2-7.3-9.1-4.7-20,2.7-10.8,9-19.4,14.2-19.1s7.3,9.1,4.7,20Z"/>
      <path class="st3" d="M482.4,212.7c-2.2,11-11.4,18.8-20.5,17.5-9.1-1.3-14.7-11.4-12.5-22.4s11.4-18.8,20.5-17.5c9.1,1.3,14.7,11.4,12.5,22.4Z"/>
      <path class="st7" d="M384,163.1c.2.3.6.6.8.9s.1.1.2.2c-.1-.1,0,0,0,.1.1.1.2.3.3.4.4.7.9,1.3,1.2,2s.3.7.4,1c0-.1,0,0,0,0v.2c0,.2.1.3.2.6.2.8.4,1.4.6,2.2.1.8,1,1.2,1.7,1s1.1-.9,1-1.7c-.7-3.3-2.3-6.5-4.6-8.9s-1.4-.6-2,0-.6,1.4,0,2h.1Z"/>
      <path class="st7" d="M388.7,147.5c3.1,3.3,6.3,6.9,8.1,11.2s1.1,10,.3,14.9c-.8,4.9,2.4,2.6,2.7.8.9-5.5,1.8-11.1-.3-16.4s-5.3-8.7-8.8-12.5-3.1.7-2,2h0Z"/>
      <path class="st7" d="M394.3,128.1c7.1,3.8,12,10,13.8,18s1,8.3,1.1,12.6,0,9.5-.3,14.1c-.3,4.7,2.7,1.8,2.8,0,.3-5.1.4-10.1.3-15.2s-.3-8.9-1.4-13.1c-2-8.1-7.5-14.8-14.8-18.7s-3,1.6-1.4,2.4h0Z"/>
      <path class="st7" d="M401.7,115.2c7.6,2,14.4,6.7,18.3,13.6,3.9,6.9,4.2,16.2,2.8,24.4-1.4,8.1-2.6,10.2-4,15.2-1.4,5,2.1,2.4,2.7.8,2.8-9.2,5.8-18.8,4.9-28.6-.9-9.8-4.3-16.4-11-21.7-6.7-5.3-8.1-5.1-12.7-6.3s-2.4,2.2-.8,2.7h-.1Z"/>
      <path class="st7" d="M436,133.6c6,8.3,2.4,18.6-1,27.2s2,2.3,2.7.8c3.8-9.2,7.2-20.3.8-29.3-6.5-9-3.5,0-2.4,1.4h0Z"/>
      <path class="st7" d="M446.3,142.1c.2,2.6.2,5,0,7.6s.7,1.4,1.3,1.3,1.3-.6,1.3-1.3v-7.6c0-2.6-.6-1.4-1.3-1.3s-1.4.7-1.3,1.3h0Z"/>
      <path class="st7" d="M431.5,142.4c.7.7.4,1.1-.2,1.7-1,1.1-.6,2.6.3,3.3,0,0,0,.1,0,0,0-.2-.1-.8.2-.9-.2,0-.6.3-.7.6-.6.7-.7,1.4-.7,2.2,0,1.7-.2,3.2-.3,4.9s.7,1.3,1.3,1.3,1.3-.7,1.3-1.3c0-1.7.2-3.5.3-5.1s0-.3-.1,0,0,0,0,0c.3-.2.7-.4.9-.8.4-.7.3-1.4,0-2.1s-.3-.4-.6-.7-.2-.2,0,0h0c.1,0,.1.3,0,.4,0,.2,0,.3,0,.1,0,0,.1-.1.2-.2.1-.1.2-.3.3-.4.2-.3.3-.6.4-.9.4-1.3,0-2.9-1-3.9s-3.2.7-2,2h0v-.2Z"/>
      <path class="st7" d="M414.2,137.7c.8,2.1,1.3,4.3,1.7,6.6s1,1.2,1.7,1,1.1-.9,1-1.7c-.3-2.2-1-4.3-1.7-6.6s-1-1.2-1.7-1-1.2,1-1,1.7h0Z"/>
      <path class="st7" d="M398.2,146.3c1.9,2.2,2.9,5,3.9,7.7s.9,2.7,1,4.2.7,3.2,1.4,4.8,1.3.9,1.9.4.8-1.2.4-1.9-.7-1.4-.9-2.2-.2-1.6-.2-2.3c-.2-1.6-.8-3-1.3-4.6-1.1-2.9-2.3-5.7-4.3-8.1s-3.1.6-2,2h.1Z"/>
      <path class="st7" d="M388.8,158.6c.6.8,1,1.7,1.4,2.7v-.3c0,.3.1.7.2,1s.3.7.7.8.8.2,1.1.1c.7-.2,1.2-1,1-1.7-.4-1.4-1.1-2.8-2-4s-.4-.6-.8-.7-.8,0-1.1.1c-.6.4-.9,1.2-.4,1.9h-.1Z"/>
      <g class="st11">
        <text class="st1" transform="translate(280.8 487.6)"><tspan x="0" y="0">Fondation</tspan></text>
      </g>
      <g class="st10">
        <text class="st2" transform="translate(200.9 715.7)"><tspan x="0" y="0">NKWANG</tspan></text>
        <text class="st2" transform="translate(482.5 715.7)"><tspan x="0" y="0">T</tspan></text>
        <text class="st2" transform="translate(519.2 715.7)"><tspan x="0" y="0">E</tspan></text>
        <text class="st2" transform="translate(557 715.7)"><tspan x="0" y="0">C</tspan></text>
        <text class="st2" transform="translate(598.1 715.7)"><tspan x="0" y="0">H</tspan></text>
      </g>
      <path class="st7" d="M355.5,277.9l3.9,10.5c.6,1.4,1.3,3,1.7,4.6s-.6,1.4-1.2,2.1-1.3,1.2-2,1.9c-2.6,2.4-5.2,4.8-7.8,7.2s-3.6,3.9-3.7,6.6c-.1,4.3,3.9,7.2,5.8,10.7s.7,4.3-.9,6.5-4.6,5.5-6.8,8.1-4.5,4.7-5.5,7.7-.3,4.3.7,6.3c1.8,3.5,6.3,6.6,6,10.8s-4.1,5.7-6.7,7.5-6.1,4.3-6.9,8,2.1,7.8,5.1,10.5,7.1,5.2,6.5,9.1,2.4,2.6,2.7.8c.6-3.9-1.7-6.8-4.5-9.3s-6.2-4.7-7.1-8.2,2.4-6.2,5-8,6.5-4.1,7.9-7.6-.7-7.9-3.1-11.1-2.8-3.3-3.2-5.5,2-5.3,3.7-7.5,4.7-5.7,7.1-8.5c2.4-2.8,3.7-4.3,3.5-7.2-.2-4.5-4.5-7-6.1-10.8s.6-5,2.6-6.9c2.9-2.8,5.9-5.5,8.9-8.2s2.6-2.1,2.9-3.7-.7-3.6-1.2-5.1l-4.5-11.7c-.7-1.7-3.3-.9-2.7.8h0v-.2Z"/>
      <path class="st7" d="M343.9,397.3c-5.3,3-11,6.8-12.5,13.1s-.2,5.9,1.4,8.3,2,2.6,2.9,3.9,1.8,2.9,2.4,4.6,1.2,3.2,1.8,4.8,1.2,3.2-.3,4.5-2.1,1.3-3,2.2-1.8,2-2.4,3.1c-2.4,4.5-2.7,10.2,0,14.6s4.2,4.5,4.9,7.3-.1,4.9-.9,7.1c-1.4,4.5-3.8,9.5-1.7,14s3.1,3.8,5.1,5.1,4.5,2.8,4.8,5.3-.2,3.5-.7,5-.8,3.1-1.2,4.8c-.7,3-1.2,6-1.3,9s.8,6.6,2.7,9.2,4.9,4.1,6.1,6.9.4,3.9.6,5.8.4,3.6.9,5.2c1,3.5,2.9,6.5,5.3,9.1s3.2-.7,2-2c-2.2-2.3-3.8-5.2-4.7-8.3s-.7-2.8-.8-4.2,0-3.3-.2-4.9c-.6-2.8-2.6-4.8-4.6-6.7s-3.7-4.2-4.2-7.1c-1.1-5.9,1.2-11.9,2.6-17.6s.7-5.8-1.3-8.2-3.6-3-5.5-4.3-3.6-3.1-3.7-5.6.7-4.6,1.3-6.7c1.6-4.6,3.5-9.6,1-14.1s-3.8-4.2-4.9-6.9-1.1-4.9-.4-7.3,1.9-4.7,3.8-6.2,4.6-2.8,4.3-6-1-3.6-1.6-5.2-1.2-3.2-2-4.8-1.8-3.1-2.9-4.6-2.3-2.8-2.9-4.5c-2.1-7.3,5.8-12.5,11.1-15.5s.1-3.3-1.4-2.4h0Z"/>
      <path class="st7" d="M428,276.3c-4.6,2.8-9.5,5.8-11.7,10.9s-1.1,10.7,2.2,14.8v-2c-4.6,5-9.1,9.9-13.7,14.9s-3.3,3.9-3.1,6.6,1.6,4.3,2.6,6.3,1.7,3.7,1.1,5.8-1.9,3.2-3.2,4.5c-2.9,2.8-6.5,5.2-8.3,8.9-3.2,6.1,0,12.9,2.9,18.5l.4-1.9c-3.5,2.6-6.9,5.1-10.4,7.8s-5.6,3.9-7.2,6.9-1.2,6.7.1,9.9,1.6,3.1,2.4,4.7,2.2,3.3,2,5.2-2.2,3.5-3.9,4.6-4,2.6-5.6,4.2-2.3,4.2-2,6.7,2,5,3.2,7.3,2.4,5,1,7.6-4.7,4.6-5.6,8-.3,2.9.3,4.1,2.4,2.3,2.7,4.1c.3,3.2-2.4,5.9-4.6,7.9s-4.7,4.5-5.6,7.5.3,5.7,1.7,8.1,3.3,4.9,1.7,7-2.2,1.6-3.3,2.3-2.2,1.8-2.8,3.2c-1.2,3.2,1,6.3,2.2,9.2s.8,3.7.2,5.8-1,4.1-1.3,6.2c-1.1,8.3.1,16.8,3.6,24.5l1.2-2.1c-3.7.2-7.2,2.9-7.9,6.6s1.1,7.3,4.3,9c3.2,1.7,3-1.6,1.4-2.4s-3.5-3.5-3-5.9,2.8-4.5,5.2-4.6,1.7-1.1,1.2-2.1c-3-6.8-4.1-14.4-3.3-21.8s.6-3.7,1-5.5,1.1-3.8.9-5.8c-.3-2.9-2.1-5.3-3-8.1s-.3-2.6.7-3.6,2.4-1.6,3.7-2.4c2.1-1.6,2.9-4,2.2-6.6s-2.8-4.9-3.7-7.5.8-5.7,2.8-7.8,4.7-4.3,6.1-7.2,1.6-5.6-.2-7.9-2.3-2.1-1.9-4.1,1.7-2.9,2.8-4.1c2-2.2,3.9-4.6,3.6-7.7s-1.6-5-2.8-7.2-2.7-4.6-2-7,2.4-3.5,4.1-4.7,4-2.4,5.5-4.2c5.5-6.2-3.5-12.4-4-18.8s3-6.6,5.9-8.8,7.6-5.7,11.4-8.6.9-1.2.4-1.9c-2.4-4.7-5.6-10.8-2.7-15.9s5.5-5.7,8.1-8.3,4.6-5.9,3.7-9.7-1.8-4-2.8-5.9-1.2-4.2.7-6.2c4.8-5.3,9.7-10.6,14.5-15.8s.4-1.3,0-2c-2.9-3.5-3.5-8.6-1.3-12.6s6.3-6.5,10.1-8.8.1-3.3-1.4-2.4h0l.4.3Z"/>
      <path class="st7" d="M351.2,281.6c.4,3.8,1.4,7.3,3,10.8s1.3.9,1.9.4.8-1.2.4-1.9c-1.3-3-2.2-6.1-2.6-9.3s-.6-1.3-1.3-1.3-1.4.7-1.3,1.3h-.1Z"/>
      <path class="st7" d="M345.8,320.8h.3c-.2,0,0,0,0,0,.2.1,0-.1,0,0s.2.2.1.1.1.2.1.2c0,0,0,.2.1.3-.1-.2,0,0,0,.1v.3c0-.3,0,0,0,.1v.3c0-.2,0,0,0,0,0,0,0,.2-.1.4-.1.3-.4.8-.8,1.1-.8.9-1.8,1.3-2.9,2s-2.4,1.3-3.5,2.2-.6,1.4,0,2,1.4.6,2,0c1.1-1,2.4-1.6,3.8-2.3s2.6-1.8,3.5-3,1.1-2.8.6-4.2-1.4-2.6-2.9-2.8-1.4.2-1.7,1,.2,1.6,1,1.7h0l.3.3Z"/>
      <path class="st7" d="M352.1,335.3c-3.3,1.8-7.5,4.5-7.1,8.8s1.6,4.2,2.6,6.1,2.3,4.3,3.5,6.5,3.2.2,2.4-1.4-1.9-3.7-2.9-5.5-2.1-3.3-2.6-5.2c-1-3.5,3.2-5.7,5.7-7s.2-3.2-1.4-2.4h0v.2Z"/>
      <path class="st7" d="M335,357.7c.3.3.7.8.9,1.1s.4.6.7.9.2.4.3.7,0,.2.1.2h0c0,.3.1.6.2.8s0,.2,0,.3c0,.2,0-.1,0,0v.8c0,.3,0-.1,0,0s0,.3-.1.6c0,0-.1.3,0,.1s0,.1,0,.1c0,.1-.2.3-.2.4s.1-.1,0,0h-.1c-.1.2-.2.3-.1.1s-.1,0-.1,0h-.2c.2-.1,0,0,0,0-.7.2-1.2,1-1,1.7s1,1.2,1.7,1c2.1-.7,3.3-2.8,3.3-5s-1.7-4.6-3.2-6.3-1.4-.6-2,0-.4,1.4,0,2h0v.6Z"/>
      <path class="st7" d="M345,370c-2.4,1.3-4.8,3-6.9,4.9s-.4,1.8.3,2.2c3.5,2,6.1,5.3,7.2,9.2,1.1,3.9,3.2,1,2.7-.8-1.3-4.6-4.5-8.5-8.6-10.9l.3,2.2c1.9-1.8,4-3.2,6.3-4.5s.2-3.2-1.4-2.4h0Z"/>
      <path class="st7" d="M346.9,401.8c-2.1.8-3.7,2.2-5,4.1s-2.8,4.5-3.2,6.7,1,5.5,1.9,7.9,2.1,5.9,3.1,8.9,3.2,1,2.7-.8c-.9-2.4-1.7-4.8-2.6-7.2s-2-4.8-2.4-7.1,1.2-4.2,2.1-5.9,2.2-3.2,4-3.9,1-3.3-.8-2.7h.2Z"/>
      <path class="st7" d="M342.3,440.4c-3.7,3.6-3.5,8.9-.4,12.7s3.5,3.9,3.9,6.8-.2,5.6-.9,8.1c-1.1,4.9-3.6,11.1.6,15.2s3.7,3.7,5,6.1,2,4.8,2.4,7.3c1.2,7-.2,14.2-1.6,21s2.3,2.4,2.7.8c2.1-10.8,4.2-23-2.4-32.7-6.7-9.7-1.3-1.8-2.1-2.7s-2.2-1.8-2.9-2.9c-1.4-2.3-.2-6,.3-8.5,1.1-4.9,2.9-10.2.9-15.1s-3.7-4.5-4.9-7.1-.4-5.3,1.4-7.2-.7-3.2-2-2h0Z"/>
      <path class="st7" d="M329.7,427.1q.6.3,1,.8t.8,1c.3.6.2.3.3.6s.2.4,0,.1c0,0,0,.2.1.3.2.4.3.9.3,1.4s0-.1,0,0v1.6c0,.2,0,.3,0,.2s0,.2,0,.2v.3c-.2.9-.6,1.6-1.1,2.1s-.6,1.4,0,2,1.4.6,2,0c3.5-3.8,2.6-10.5-1.9-13.1s-3,1.4-1.4,2.4h-.1Z"/>
      <path class="st7" d="M331.3,462.9c.3.4.7,1,.9,1.6s.1.3.2.4c-.1-.3,0,.1,0,.2,0,.3.2.6.2.9s.1.6.2.9,0,.3,0,.4c0-.3,0,0,0,.1v1.8c0,.6.7,1.4,1.3,1.3s1.3-.6,1.3-1.3c.2-2.7-.6-5.6-2.1-7.8s-1.2-.9-1.9-.4-1,1.2-.4,1.9h.2Z"/>
      <path class="st7" d="M336.6,494c.8,2.7,1.6,5.3,2.3,8s1,1.2,1.7,1,1.2-1,1-1.7c-.8-2.7-1.6-5.3-2.3-8s-1-1.2-1.7-1-1.2,1-1,1.7h0Z"/>
      <path class="st7" d="M431.2,282.6c-.6,3.8-5.1,5-7.8,6.9s-2.8,2.6-3.5,4.5-.3,3.8,1,5.3,1.4.4,2,0,.4-1.3,0-2c-.9-1-.4-2.6.2-3.7s2.4-2.2,3.8-3.1c2.9-1.7,6.5-3.6,7-7.2s-.2-1.4-1-1.7-1.6.2-1.7,1h-.1Z"/>
      <path class="st7" d="M419.3,308.8c-4,.2-7.6,2.8-9.3,6.3s-1.8,9.1-.7,13.6c1.1,4.5,3.1,1,2.7-.8-1-3.6-1.3-7.7.2-11.2s3.9-5.1,7-5.2,1.8-2.9,0-2.8h.1Z"/>
      <path class="st7" d="M405.2,342.8c0-.2,0,.1,0,.2v.9c0,.3-.2.9-.3,1.2-.2.7-.8,1.6-1.3,2.1-1.3,1.4-3,2.4-4.8,3.5s-.1,3.3,1.4,2.4,4.1-2.4,5.7-4.2,2.6-4.3,2.1-6.9-1-1.1-1.7-1-1.1,1-1,1.7h-.1Z"/>
      <path class="st7" d="M393.3,371.2c-.4.8-1.2,1.2-2.1,1.7s-1.7,1-2.3,1.7c-1.3,1.2-2.3,2.9-3,4.7-1.2,3.5-.9,7.6,1.3,10.5s1.2.9,1.9.4.9-1.3.4-1.9c-1.8-2.6-2.1-5.8-.9-8.7s1.4-2.6,2.7-3.5,3.3-1.8,4.3-3.6-1.6-3-2.4-1.4h.1Z"/>
      <path class="st7" d="M384.5,406.1c-2.4.6-4.5,2.6-5,5s.2,5.5,2.1,7.5,1.4.6,2,0,.6-1.4,0-2c-1.2-1.2-1.8-3.1-1.3-4.7s1.6-2.7,3.1-3,1.1-1,1-1.7-1-1.1-1.7-1h-.2Z"/>
      <path class="st7" d="M374.1,454c-2.8,2.9-3.9,7.1-3,11s1,1.1,1.7,1,1.1-1,1-1.7,0-.3-.1-.6,0-.2,0-.3c0,.1,0,0,0,0v-2.1c0-.1,0-.3,0-.2,0-.2.1-.8.2-1.1.4-1.4,1.1-2.8,2.1-3.9s.6-1.4,0-2-1.4-.6-2,0h.1Z"/>
      <path class="st7" d="M370.1,480.4l-1.6,1.6c-.1.1-.2.2-.3.4,0,.1-.1.3-.1.6s0,.3.1.6c0,.2.1.3.3.4.2.2.7.4,1,.4s.7-.1,1-.4l1.6-1.6c.1-.1.2-.2.3-.4,0-.1.1-.3.1-.6s0-.3-.1-.6c0-.2-.1-.3-.3-.4-.2-.2-.7-.4-1-.4s-.7.1-1,.4h0Z"/>
      <path class="st7" d="M366.7,497.1v16.7c0,1.8,2.8,1.8,2.8,0v-16.7c0-1.8-2.8-1.8-2.8,0h0Z"/>
      <path class="st7" d="M358.6,543.1c.6,2.8,3,4.5,4.3,6.8s1.8,5.2,1.1,7.9,2.2,2.4,2.7.8c.8-3.1.6-6.3-.9-9.2s-1.6-2.6-2.6-3.7-1.8-2-2-3.5-1-1.1-1.7-1-1.1,1-1,1.7h0v.2Z"/>
      <path class="st7" d="M411.9,298.7c-3.5,2-6.3,4.8-8.5,8.2s-.1,1.6.4,1.9,1.6.2,1.9-.4.4-.8.8-1.2.2-.3.3-.6.1-.2.2-.2,0,.1,0,0c.6-.7,1.2-1.4,1.9-2.1s.7-.7,1-.9.3-.3.4-.4.2-.1.3-.2c-.1.1,0,0,0,0,.8-.6,1.6-1.1,2.3-1.6s.9-1.2.4-1.9-1.2-.9-1.9-.4h.2Z"/>
      <path class="st7" d="M398.3,328.3c.4,1.6.9,3.2,1.3,4.8s.4,2.1-.1,3.1c-1.1,1.9-3.5,3-5.3,3.8s-.9,1.3-.4,1.9,1.2.8,1.9.4c2.4-1.1,5.1-2.6,6.5-5s.9-2.9.6-4.3-1-3.7-1.4-5.6-3.1-1-2.7.8h-.2Z"/>
      <path class="st7" d="M388.4,354c.3,2.2.8,4.3,1.1,6.6s1,1.2,1.7,1,1.1-.9,1-1.7c-.3-2.2-.8-4.3-1.1-6.6s-1-1.2-1.7-1-1.1.9-1,1.7h0Z"/>
      <path class="st7" d="M376.3,290.2c4.7-3.7,8.7-8,11.9-13h-2.4c2.1,3.7,4.3,7.5,6.5,11.1l1.7,2.8c.3.6,1.3,1.7,1.1,2.4s-1.6,1.3-2,1.8c-.8.7-1.4,1.2-2.2,1.9-5.6,5-10.6,10.8-14.8,17l2.6.3c-1.4-7.5-2.9-14.8-4.3-22.3s-3-1-2.7.8c1.4,7.5,2.9,14.8,4.3,22.3s1.9,1.2,2.6.3c4.7-6.8,10.2-13,16.6-18.4,6.3-5.3,2.9-2.1,2.9-3.9s-1.7-3.8-2.6-5.2c-2.3-4.1-4.8-8.2-7.1-12.2s-1.9-.9-2.4,0c-2.9,4.7-6.6,8.7-10.9,12s0,3.5,1.4,2.4h0v-.2Z"/>
      <path class="st7" d="M365.5,334.7c4.7-3.7,8.7-8,11.9-13h-2.4c2.1,3.7,4.3,7.5,6.5,11.1l1.7,2.8c.3.6,1.3,1.7,1.1,2.4s-1.6,1.3-2,1.8c-.8.7-1.4,1.2-2.2,1.9-5.6,5-10.6,10.8-14.8,17l2.6.3c-1.4-7.5-2.9-14.8-4.3-22.3s-3-1-2.7.8c1.4,7.5,2.9,14.8,4.3,22.3s1.9,1.2,2.6.3c4.7-6.8,10.2-13,16.6-18.4,6.3-5.3,2.9-2.1,2.9-3.9s-1.7-3.8-2.6-5.2c-2.3-4.1-4.8-8.2-7.1-12.2s-1.9-.9-2.4,0c-2.9,4.7-6.6,8.7-10.9,12s0,3.5,1.4,2.4h0v-.2Z"/>
      <path class="st7" d="M357.4,379.5c4.7-3.7,8.7-8,11.9-13h-2.4c2.1,3.7,4.3,7.5,6.5,11.1l1.7,2.8c.3.6,1.3,1.7,1.1,2.4s-1.6,1.3-2,1.8c-.8.7-1.4,1.2-2.2,1.9-5.6,5-10.6,10.8-14.8,17l2.6.3c-1.4-7.5-2.9-14.8-4.3-22.3s-3-1-2.7.8c1.4,7.5,2.9,14.8,4.3,22.3s1.9,1.2,2.6.3c4.7-6.8,10.2-13,16.6-18.4s2.9-2.1,2.9-3.9-1.7-3.8-2.6-5.2c-2.3-4.1-4.8-8.2-7.1-12.2s-1.9-.9-2.4,0c-2.9,4.7-6.6,8.7-10.9,12s0,3.5,1.4,2.4h0v-.2Z"/>
      <path class="st7" d="M356.7,412.5c-1.3,2.7-2.6,5.3-3.6,8.1s-1.1,2.8-1.6,4.1-.4,2.2.3,3.2c1.7,2,3.1,3.9,4.2,6.3s1.9,5.2,2.7,7.8,2,1.4,2.6.3c2.7-5.2,4.8-10.8,6.3-16.5s1.7-5-.3-7-4.7-4.1-7-6.1-3.3.8-2,2c2,1.7,4,3.5,5.9,5.1s1.2.8,1.4,1.3-.1,1.3-.2,1.9c-.2,1.1-.6,2.3-.9,3.5-1.4,5-3.3,9.8-5.7,14.4l2.6.3c-1.3-4.6-2.8-9.2-5.7-13.1s-.7-.9-1.1-1.3c-.6-.7-.7-.7-.6-1.4.3-1.3,1-2.7,1.4-3.9,1-2.7,2.2-5.2,3.5-7.7s-1.7-3-2.4-1.4h.1Z"/>
      <path class="st7" d="M355.9,459.1l-2.7,4.5c-.9,1.4-2.1,3-1.1,4.7s.8,1,1.1,1.7.4,1.2.7,1.9c.3,1.3.3,2.8.4,4.1s1.9,2,2.6.7c1.4-2.8,3.3-5.5,4.3-8.5s.8-5.6-1.1-7.7-1.4-.4-2,0-.4,1.4,0,2c1.3,1.6.8,4,0,5.8s-2.4,4.7-3.8,7l2.6.7c0-2.7-.2-5.5-1.7-7.8s-.3-.4-.4-.7c0-.1-.2-.2-.3-.4-.1-.2-.2-.3,0,0,0-.2.4-.7.6-.9l.7-1.1,2.6-4.2c.9-1.6-1.4-2.9-2.4-1.4h0v-.2Z"/>
      <path class="st7" d="M376.3,294.3c.4,1,.7,2,.9,3.1v.2q0-.2,0,0v2.8c0,.6.7,1.4,1.3,1.3s1.3-.7,1.3-1.3c.2-2.3-.1-4.7-1-6.8s-.3-.7-.7-.8-.8-.2-1.1-.1c-.7.2-1.2,1-1,1.7h.2Z"/>
      <path class="st7" d="M385.2,286.3l2.2,5c.1.2.4.8.4,1.1s0-.1,0,0-.2.2-.3.2c-.7.3-1.3.7-2,1.1-2.8,1.7-5.1,4-7,6.7s0,1.6.4,1.9,1.4.1,1.9-.4c2-2.9,4.7-5.1,7.8-6.7s1.4-.9,1.8-1.7.1-2-.3-2.9c-.9-1.9-1.7-3.8-2.6-5.7s-1.3-.9-1.9-.4-.8,1.2-.4,1.9h0Z"/>
      <path class="st7" d="M373.1,329.1c-3.3,1.1-5.9,3.9-7,7.3s-.6,3.6-.1,5.5,1.4,4.1,1.8,6.2,1,1.1,1.7,1,1.1-1,1-1.7c-.6-3.2-2.6-6.3-1.8-9.7s2.6-4.9,5.1-5.8,1-3.2-.8-2.7h0v-.2Z"/>
      <path class="st7" d="M366.3,375.7c.9,1,1.6,2.2,2.2,3.3s.3.6.4.9,0,.2,0,.3,0,0,0,0c0,.2-.6.6-.8.7-.3.2-.7.6-1,.8-2.6,2-5,4-7.6,6s-.4,1.4,0,2,1.3.4,2,0c3-2.3,6-4.7,8.9-7s1.2-1.3,1.2-2.2-.4-1.7-.8-2.4c-.8-1.6-1.8-2.9-2.8-4.2s-1.4-.4-2,0-.4,1.3,0,2h.1Z"/>
      <path class="st7" d="M358,421.7c0-.1,0-.2,0,0h0q0-.1,0,0v-.2.2c0,.1.1-.2,0,0-.2.3-.4.7-.6,1-.6.9-.7,1.8-.6,2.8.3,1.7,1.7,3.1,3,4.1s.7.4,1.2.3.9-.3,1-.7c.8-1.7,1.6-3.3,2.3-5s.4-1.1.2-1.8-.6-1-1.1-1.3c-.9-.4-1.8-.8-2.7-1.1s-1.6.3-1.7,1,.2,1.4,1,1.7,1.3.6,2,.9c-.2-.1.1,0,.2,0-.2-.1-.3-.3-.3-.7s0-.2,0,0q0-.1,0,0v.2c-.2.1-.2.3-.3.4-.7,1.3-1.2,2.8-1.9,4.1l2.2-.3c-.3-.2-.7-.6-.9-.8s-.2-.2-.3-.4-.1-.1-.2-.2-.2-.2-.1-.1,0-.1,0-.1c0,0,0-.1-.1-.2,0-.1-.2-.3-.2-.4.1.2,0,0,0,0v-.2c0-.2,0,.1,0,0v-.2c0-.2,0,0,0,0v-.2c0-.1,0-.2,0,0,0,0,0-.1.1-.2.2-.3.3-.6.6-.9.6-.9.7-1.9.2-2.9s-1.3-.9-1.9-.4-.9,1.2-.4,1.9h-.8Z"/>
      <path class="st7" d="M357.2,466.7c1.8,0,1.8-2.8,0-2.8s-1.8,2.8,0,2.8h0Z"/>
      <path class="st7" d="M361.1,302.2c-.6.6-1.2,1.1-1.9,1.7s-.7.6-1,.8-.6.4-.8.7c-1.3,1-2.7,1.9-4.1,2.8s-.9,1.2-.4,1.9,1.2.9,1.9.4c3-1.8,5.8-4,8.2-6.3s.6-1.4,0-2-1.4-.6-2,0h.1Z"/>
      <path class="st7" d="M415.2,280.6c-3.1,3.1-4.6,7.7-3.8,12s1,1.1,1.7,1,1.1-1,1-1.7c-.6-3.3.7-6.9,3-9.3s-.7-3.2-2-2h.1Z"/>
      <path class="st7" d="M362.6,379.5v.7-.3c0,.3,0,.7-.2,1.1v-.3c0,.3-.2.7-.4.9l.2-.3-.7.7.3-.2h-.1c-.3.2-.6.4-.7.8s0,.8.1,1.1.4.6.8.7.8,0,1.1-.1c.8-.6,1.3-1.2,1.8-2s.7-1.7.7-2.6-.1-.8-.4-1-.7-.4-1-.4c-.8,0-1.4.6-1.3,1.3h-.1Z"/>
      <path class="st7" d="M374.5,333.9c-1.6,1.9-2.2,4.3-1.7,6.7s1,1.2,1.7,1,1.1-.9,1-1.7,0-.2,0-.3q0,.2,0,.1v-1.4q0-.1,0,.1c0-.2,0-.4.1-.7s.1-.4.2-.7h0c0-.2,0-.1,0-.1,0,0,0-.2.1-.3,0-.2.2-.4.3-.6s.1-.2.2-.3h0q-.1.1,0-.1c.2-.3.4-.6.4-1s-.1-.8-.4-1c-.6-.4-1.4-.6-2,0h0v.3Z"/>
      <path class="st7" d="M383.2,290h.1c0,.1-.2-.2-.2-.2.1.1.2.3.3.6v-.3.7-.3.8-.3c0,.2,0,.6-.1.8v-.3c0,.2,0,.4-.2.7l.2-.3c-.1.1-.2.3-.4.4l.3-.2c-.1.1-.3.2-.6.3h.3c-.3,0-.7.2-.8.6s-.2.8-.1,1.1.3.7.7.8.8.2,1.1.1c.7-.2,1.2-.6,1.6-1.1s.8-1.1.9-1.8c.3-1.3,0-2.7-.9-3.7s-1.4-.6-2,0-.6,1.4,0,2h-.2Z"/>
      <path class="st7" d="M331.6,390.9l2.1,2.4c.3.4.8.9,1.1,1.3s.1.1.2.2,0-.1,0,0,.1.2.2.3c.1.2,0,0,0,0h0c0,.1,0,.4,0,.1s0,0,0,0c0,.2.1-.2,0,0h0q0,.2,0,0h0c0,.1-.2.3,0,0,0,0-.1,0-.2.1-.1,0-.3.2-.4.2s0,0,0,0c0,0-.2,0-.3.1-.3.1-.8.2-1.1.3-.7.1-1.2,1-1,1.7s.9,1.1,1.7,1c1.9-.3,4.3-1.6,4.2-3.9s-1.1-2.4-2-3.5l-2.7-3c-.4-.6-1.4-.6-2,0s-.6,1.3,0,2h0l.2.4Z"/>
      <path class="st7" d="M356.3,483.2c.8,6.5,2.7,12.6,3.1,19.1s-.4,12.9-2.2,19,2.1,2.4,2.7.8c1.9-6.2,2.8-12.8,2.4-19.3s-2.3-13-3.1-19.6-3-1.8-2.8,0h-.1Z"/>
      <path class="st7" d="M364.3,414.6c1.2,1,2.6,1.8,3.8,2.8s2.1,1.9,2,3.5-1.1,3.5-1.8,5.1-1.2,3.9-1.3,5.9,2.7,1.8,2.8,0,.8-4.1,1.6-6,1.7-3.8,1.4-5.9c-.4-3.8-4-5.1-6.6-7.2s-3.3.8-2,2h.1Z"/>
    </g>
  </g>
</svg>