<?xml version="1.0" encoding="UTF-8"?>
<svg id="Layer_1" xmlns="http://www.w3.org/2000/svg" version="1.1" viewBox="0 0 842 842">
  <!-- Generator: Adobe Illustrator 30.1.0, SVG Export Plug-In . SVG Version: 2.1.1 Build 136)  -->
  <defs>
    <style>
      .st0 {
        isolation: isolate;
      }

      .st1 {
        fill: #fff;
      }

      .st2 {
        display: none;
      }
    </style>
  </defs>
  <g id="Layer_8">
    <g id="Layer_12">
      <g class="st2">
        <g>
          <path class="st1" d="M331.3,529.2v-157.3h21.5l21.4,82,1.9,7.2h1.3v-89.2h21.2v157.3h-19.3l-23.6-81.9-1.9-7.2h-1.3v89.2h-21.2Z"/>
          <path class="st1" d="M439.3,530.8c-8.6,0-15.3-3-20.4-8.8s-7.4-13.2-7.4-22.1v-58.7c0-8.9,2.5-16.2,7.4-22.1,4.9-5.8,11.7-8.8,20.4-8.8s15.2,3,20.2,8.8c4.9,5.8,7.5,13.2,7.5,22.1v58.7c0,8.9-2.6,16.2-7.5,22.1s-11.6,8.8-20.2,8.8h0ZM439.3,511.9c2.7,0,4.8-1.2,5.8-3.4s1.5-5.2,1.5-8.6v-58.7c0-3.6-.5-6.4-1.5-8.6s-3-3.4-5.8-3.4-4.8,1.2-5.8,3.4-1.5,5-1.5,8.6v58.7c0,3.6.5,6.4,1.5,8.6,1.2,2.3,3.1,3.4,5.8,3.4Z"/>
          <path class="st1" d="M503.2,530.9c-9.4,0-16.4-3-20.9-8.9-4.4-5.9-6.6-14.1-6.6-24.6v-53.1c0-10.6,2.2-18.8,6.6-24.8s11.3-8.9,20.9-8.9,16.4,3,21,8.9c4.5,5.9,6.8,14.1,6.8,24.6v9.2h-21.5v-12c0-3.2-.4-6.1-1.3-8.3-.9-2.2-2.6-3.4-4.9-3.4s-4,1.2-4.9,3.4c-.8,2.2-1.2,4.9-1.2,8.3v58.7c0,3.1.4,5.9,1.2,8.3.8,2.2,2.5,3.4,4.9,3.4s4.1-1.2,4.9-3.4,1.3-4.9,1.3-8.3v-12h21.5v9.2c0,10.6-2.2,18.7-6.8,24.6-4.5,6.1-11.6,9-21,9h0Z"/>
          <path class="st1" d="M567.3,530.8c-8.6,0-15.3-3-20.4-8.8-4.9-5.8-7.4-13.2-7.4-22.1v-58.7c0-8.9,2.5-16.2,7.4-22.1,4.9-5.8,11.7-8.8,20.4-8.8s15.2,3,20.2,8.8c4.9,5.8,7.5,13.2,7.5,22.1v58.7c0,8.9-2.6,16.2-7.5,22.1s-11.6,8.8-20.2,8.8ZM567.3,511.9c2.7,0,4.8-1.2,5.8-3.4,1-2.2,1.5-5.2,1.5-8.6v-58.7c0-3.6-.5-6.4-1.5-8.6s-3-3.4-5.8-3.4-4.8,1.2-5.8,3.4-1.5,5-1.5,8.6v58.7c0,3.6.5,6.4,1.5,8.6,1.2,2.3,3.1,3.4,5.8,3.4Z"/>
          <path class="st1" d="M632.7,531c-5,0-9.4-.9-13.3-2.6s-7-4.1-9.4-7.4c-2.6-3.1-4.3-7-5.5-11.2s-1.9-9.2-1.9-14.6h20.1c0,4.8.8,8.9,2.3,12.4,1.5,3.5,4.1,5.3,7.7,5.3s5.2-1.3,6.1-4c.9-2.6,1.4-5.7,1.4-9s-1.5-8.1-4.6-12.3c-3.1-4.3-6.3-7.9-9.7-11.2-5.8-5.7-10.6-11.3-14.4-16.9-3.9-5.4-5.7-12.1-5.7-19.6s2.3-16,7-21.4,11.2-8.1,19.7-8.1,9.4.6,12.9,2.1,6.3,3.4,8.5,6.1c2.1,2.7,3.7,6.1,4.6,9.9s1.4,8.4,1.4,13.5h-20.1c0-3.7-.4-7-1.2-9.5-.8-2.7-2.7-4.1-5.9-4.1s-4.4,1-5.4,3.2-1.5,4.9-1.5,8.3.9,7.4,2.8,10.4,5,6.7,9.4,11.1c5.5,5.4,10.6,11.2,15.2,17.3,4.6,6.1,6.8,12.9,6.8,20s-.6,9-1.9,12.9c-1.3,3.9-3.1,7.2-5.4,10.1-2.5,2.8-5.3,5-8.6,6.6-3.5,1.5-7.4,2.5-11.7,2.5h0l.4.4Z"/>
          <path class="st1" d="M700.3,531c-6.7,0-11.9-1.4-15.5-4.5-3.6-3.1-6.1-7.2-7.4-12.9-1.4-5.5-2.1-12.3-2.1-19.9v-62h-11v-19.5h11.1v-28.9h21.5v28.9h14.8v19.5h-14.8v65.3c0,4.5.6,7.9,2.1,10.1s3.6,3.2,6.6,3.2,2.6,0,3.6-.3,1.9-.4,2.6-.8v19.7c-1.4.5-3,1-4.6,1.4-1.7.3-4,.5-7,.5h0Z"/>
          <path class="st1" d="M735.2,531c-4.9,0-9.3-2.6-12.9-7.6-3.7-5-5.4-12.9-5.4-23.2s2.1-18.1,6.4-24.2,10.7-11.5,19.3-15.9c2.7-1.4,4.9-2.7,6.8-3.9s3-2.2,3.4-3.1v-12.9c0-3-.3-5.4-1-7.6s-2.3-3.1-4.9-3.1-4.1,1.2-4.9,3.4-1.3,5-1.3,8.4v5.5h-21.5v-4.9c0-6.4,1.3-12,3.7-16.6s6.1-8.3,10.3-10.8c4.4-2.6,9.4-3.7,15-3.7s10.1,1.3,13.9,3.7,7,5.9,9.2,10.1c2.2,4.3,3.2,9.3,3.2,14.8v69.8c0,5.2,0,9.3.4,12.1.3,2.8.6,5.5,1,8.3h-21.2c-.9-1.2-1.4-2.8-1.7-5s-.3-3.7-.3-4.4h-1.3c-1.8,3.2-4,6.1-6.8,8-2.6,2.1-5.8,3.1-9.4,3.1h-.1ZM744,509.9c2.6,0,4.6-.9,6.3-2.6,1.8-1.7,2.6-3.6,2.6-5.5v-27.7c-5.2,2.2-8.9,5.5-11.3,10.1s-3.6,9.4-3.6,15.1.4,4.9,1.4,7.2c.9,2.3,2.6,3.6,4.6,3.6h0Z"/>
        </g>
        <g>
          <path class="st1" d="M164.7,369.7c38.9,5.4,47.2,14.3,48.4,20.8,4.8,23.2-74.8,40.5-103.8,104.7-13.3,29.5-11.2,58.8-8.4,76.2-14.1-6.6-48.7-25.7-57-59.8-12-48.7,33.5-116.7,120.8-141.9h0Z"/>
          <path class="st1" d="M138.5,379.4c18.3-8.9,70.3-31.1,104.5-9.3,44.4,28.2,53.9,127.9-10.1,234.3-35.7,4.1-71.2,8.3-106.8,12.3,85.5-75.2,110.5-164.2,80.2-206.3-5-7.1-21.7-26.6-67.8-31.1h0Z"/>
        </g>
        <g>
          <path class="st1" d="M149.6,364.9c22.2-15.2,24.4-23.2,23.2-27.3-4.4-16-61.6-.3-103.7-31.7-19-14.2-28.4-33.4-33-45-6.4,9.3-21.4,34-14.3,58.4,10.2,35.1,63.6,61.4,127.8,45.7h0Z"/>
          <path class="st1" d="M123.6,368.7c14.7-.9,55.7-5.4,69.5-31.5,18.1-33.8-11.5-100.3-90-145-24,10.1-48.1,20.2-72.1,30.3,81,17,128.7,64.5,124.5,102.1-.9,6.3-4.3,24.6-32,43.8h.1Z"/>
        </g>
        <g>
          <path class="st1" d="M209.1,307.9c14.3,21.4,22.1,23.6,26.2,22.6,16.1-4,1.8-61,33.5-102.4,14.4-18.8,33.7-28,45.4-32.6-9.3-6.4-33.8-21.7-58.3-14.8-35.2,9.8-62,62.9-46.8,127.3h0Z"/>
          <path class="st1" d="M205.7,287.9c.9,14.7,5.4,55.7,31.5,69.5,33.8,18.1,100.3-11.5,145-90-10.1-24-20.2-48.1-30.3-72.1-17,81-64.5,128.7-102.1,124.5-6.3-.8-24.6-4.3-43.8-32h-.1Z"/>
        </g>
      </g>
      <g class="st2">
        <path class="st1" d="M183.1,349c29.7,9.8,44.6-6.1,86.7-3.2,37,2.5,66.2,17.4,84.9,29.4-31.1-50-62.3-66.7-86.3-72.2-41.8-9.4-77.8,11.5-122.1-13-19.3-10.7-27.7-23.2-30.2-21-5,4.3,20,64.6,67.2,80.2h-.1Z"/>
        <path class="st1" d="M201.6,275.8c24.8,19.2,44,9.2,82.7,25.8,34,14.6,56.6,38.6,70.2,56.1-12.5-57.5-36.4-83.7-57.3-97-36.2-22.8-77.1-15.1-110.8-53.1-14.6-16.5-18.4-31.2-21.4-30-6.1,2.3-2.6,67.7,36.8,98.1h-.1Z"/>
        <path class="st1" d="M186.1,429.8c31.3-1.3,39.7-21.3,80-33.5,35.6-10.6,68.1-6.8,89.8-2.2-46.7-36-81.6-40.8-106.1-37.4-42.4,5.8-68.9,38-119,30.6-21.9-3.2-34.2-11.9-35.7-9.2-3.1,5.7,41.5,53.5,91,51.6h.3-.1Z"/>
        <path class="st1" d="M231.1,488.8c25.4-9.7,26.6-28.4,56.5-49.7,26.2-18.6,54-24.5,73.3-26.6-48.4-16.6-78.5-10.7-97.8-1.3-33.4,16.5-46,50.4-89.4,58.2-18.8,3.4-31.5-.3-32,2.5-1,5.4,49,32.4,89.2,16.9h.1Z"/>
        <path class="st1" d="M384.2,247.6c-5.9,34.3-11.9,68.4-17.8,102.7,8.3,38,16.2,75.8,24.5,113.9,5.5-38,11.2-75.8,16.8-113.9-7.9-34.2-15.7-68.4-23.5-102.7h0Z"/>
      </g>
      <g>
        <path class="st1" d="M329.9,315.8c31.7-21.2,54.2-7.5,102.7-24.5,42.7-15,71.8-42,89.8-62.3-19.9,68.7-51.2,98.7-77.5,113-45.9,24.8-94.9,11.9-138.9,55.3-19.2,18.8-24.9,36.4-28.5,34.7-7.1-3.4,2.6-82.4,52.6-116.1h-.1Z"/>
        <path class="st1" d="M375.7,395.7c22.7-30.6,48.6-25.1,88.5-57.5,35.2-28.4,53.6-63.7,63.8-88.6,4.1,71.4-15.2,110.1-35.3,132.3-34.9,38.7-85.5,43.1-112.5,98.7-11.7,24.2-11.5,42.7-15.3,42.2-7.9-.8-25.3-78.5,10.7-126.9h.1Z"/>
        <path class="st1" d="M307.1,220.2c37-8.8,53.4,12,104.7,12.9,45.1.9,82-14.2,106-26.8-42.8,57.4-82.4,74.4-112.2,78.5-51.6,7.1-93.1-22.1-149.5,3.1-24.5,11-36.2,25.1-38.9,22.4-5.5-5.5,31.2-76.2,89.9-90.1h0Z"/>
        <path class="st1" d="M340.6,136.4c32.9,3.1,40.6,24.6,82.5,39.7,36.9,13.3,71.4,11.1,94.7,7.2-51.2,35.3-88.5,38.4-114.1,33.5-44.4-8.4-70.4-44-123.9-38.9-23.2,2.2-36.8,10.7-38.3,7.7-3-6.2,46.9-54,99.2-49.3Z"/>
        <path class="st1" d="M385.2,436c22.7-33.7,46.4-35.9,74.9-58.9,25.3-20.4,54-57,68-127.7-10.1,24.9-28.6,60.4-63.8,88.6-40,32.4-65.8,26.8-88.5,57.5-36.1,48.5-18.7,126.1-10.7,126.9-10.4-41.1,13.7-76.7,20.2-86.4h-.1Z"/>
        <path class="st1" d="M325.3,356.9c32.8-24.1,55.7-18.3,90.1-30.7,30.7-10.8,70.2-35.9,106.7-97.8-17.9,20.2-47.2,47.3-89.6,62.4-48.4,17-70.9,3.4-102.7,24.6-50,33.8-59.7,112.8-52.4,116.1,3.9-42.2,38.6-67.8,47.8-74.7h0Z"/>
        <path class="st1" d="M288.3,257.4c39.2-11.2,58.5,2.3,95.3,3,32.6.6,78.2-8.9,134.1-54-23.7,12.6-60.9,27.7-106,26.8-51.3-.9-67.7-21.7-104.7-12.9-58.7,14.1-95.4,84.6-89.8,90.1,18.4-38,59.8-49.9,71.1-53.1h0Z"/>
        <path class="st1" d="M316.8,161.5c35.1,1.8,46.6,17.5,76,28,26.1,9.3,65.9,14.1,125.1-6.2-23.2,3.5-57.6,5.4-93.9-7.5-41.1-14.6-47.8-35.2-80.5-38.3-51.8-4.9-103.3,40.5-100.5,46.4,26.7-24.9,63.7-23,73.8-22.4h0Z"/>
        <path class="st1" d="M577.7,169.1c-2.1-1.3-9.4,15.5-23.6,20.1-9.7,3.1-19.5-.3-25.9-3.5,1.4.3,21.4,5.4,27.1,23.1,2.2,7,1.4,13.3.4,16.9,1.2-2.7,4.8-10.4,13.4-15.7,7.7-4.9,15.3-5.3,18.4-5.2-4.1-1.8-10.1-5.3-12.4-11.5-4.1-10.7,4.5-23.1,2.6-24.2h0Z"/>
      </g>
    </g>
    <g class="st0">
      <path class="st1" d="M122.4,652.2v-84h19.6l46.2,56h-9.2v-56h23.2v84h-19.6l-46.3-56h9.2v56h-23.2.1Z"/>
      <path class="st1" d="M261.4,653.9c-6.6,0-12.9-1-18.6-3.2-5.7-2.2-10.7-5.2-14.8-9.2s-7.5-8.5-9.8-13.9-3.5-11.2-3.5-17.4,1.2-12,3.5-17.3,5.7-9.9,9.8-13.9c4.1-4,9-7.1,14.8-9.2,5.7-2.2,12-3.2,18.7-3.2s13,1,18.7,3.2c5.7,2.2,10.6,5.2,14.8,9.2,4.1,4,7.5,8.5,9.8,13.8,2.3,5.4,3.5,11,3.5,17.4s-1.2,12.3-3.5,17.5-5.7,9.9-9.8,13.9c-4.1,4-9.2,7.1-14.8,9.2s-12,3.2-18.7,3.2h-.1ZM261.4,634.2c3.2,0,6.1-.6,8.9-1.7,2.7-1,5.2-2.7,7.2-4.9,1.9-2.2,3.6-4.6,4.8-7.5,1.2-3,1.7-6.3,1.7-9.9s-.6-7.1-1.7-9.9c-1.2-3-2.7-5.5-4.8-7.5-1.9-2.2-4.4-3.6-7.2-4.9-2.7-1-5.8-1.7-8.9-1.7s-6.1.6-8.9,1.7c-2.7,1-5.2,2.7-7.2,4.9-2.2,2.2-3.6,4.6-4.8,7.5s-1.7,6.3-1.7,9.9.6,7.1,1.7,9.9,2.7,5.5,4.8,7.5c2.2,2.2,4.4,3.6,7.2,4.9,2.7,1,5.8,1.7,8.9,1.7Z"/>
      <path class="st1" d="M362.5,653.9c-6.6,0-12.6-1-18.3-3.2-5.7-2.2-10.6-5-14.7-9-4.1-3.9-7.4-8.5-9.8-13.9-2.3-5.4-3.5-11.3-3.5-17.5s1.2-12.3,3.5-17.5,5.5-9.9,9.8-13.9c4.1-3.9,9-6.8,14.7-9,5.7-2.2,11.7-3.2,18.3-3.2s14.7,1.4,20.8,4c6.1,2.7,11.2,6.6,15.3,11.7l-15.1,13.7c-2.7-3.2-5.7-5.7-9-7.4-3.2-1.7-6.8-2.5-10.8-2.5s-6.6.6-9.5,1.7-5.4,2.7-7.4,4.9-3.6,4.6-4.8,7.6c-1.2,3-1.7,6.3-1.7,9.8s.6,6.8,1.7,9.8c1.2,3,2.7,5.5,4.8,7.6,1.9,2.2,4.4,3.6,7.4,4.9,3,1,6.1,1.7,9.5,1.7s7.5-.8,10.8-2.5c3.2-1.7,6.3-4.1,9-7.5l15.1,13.7c-4.1,5.2-9.2,9.2-15.3,12-6.2,2.8-13,4.1-20.8,4.1h0Z"/>
      <path class="st1" d="M447.3,653.9c-6.6,0-12.9-1-18.6-3.2-5.7-2.2-10.7-5.2-14.8-9.2s-7.5-8.5-9.8-13.9-3.5-11.2-3.5-17.4,1.2-12,3.5-17.3,5.7-9.9,9.8-13.9,9-7.1,14.8-9.2c5.7-2.2,12-3.2,18.7-3.2s13,1,18.7,3.2c5.7,2.2,10.6,5.2,14.8,9.2,4.1,4,7.5,8.5,9.8,13.8,2.3,5.4,3.5,11,3.5,17.4s-1.2,12.3-3.5,17.5c-2.3,5.3-5.7,9.9-9.8,13.9s-9.2,7.1-14.8,9.2-12,3.2-18.7,3.2h-.1ZM447.3,634.2c3.2,0,6.1-.6,8.9-1.7,2.7-1,5.2-2.7,7.2-4.9s3.6-4.6,4.8-7.5c1.2-3,1.7-6.3,1.7-9.9s-.6-7.1-1.7-9.9c-1.2-3-2.7-5.5-4.8-7.5-1.9-2.2-4.4-3.6-7.2-4.9-2.7-1-5.8-1.7-8.9-1.7s-6.1.6-8.9,1.7c-2.7,1-5.2,2.7-7.2,4.9-2.2,2.2-3.6,4.6-4.8,7.5-1,3-1.7,6.3-1.7,9.9s.6,7.1,1.7,9.9c1,3,2.7,5.5,4.8,7.5,2.2,2.2,4.4,3.6,7.2,4.9,2.7,1,5.8,1.7,8.9,1.7Z"/>
      <path class="st1" d="M536,653.9c-7.1,0-13.7-.9-20-2.6-6.4-1.7-11.5-4-15.5-6.6l7.7-17.5c3.9,2.5,8.1,4.4,13,5.9s9.8,2.3,14.7,2.3,5.9-.3,8-.8c1.9-.6,3.4-1.4,4.3-2.5.9-1,1.4-2.3,1.4-3.6s-.9-3.4-2.6-4.4c-1.8-1-4.1-1.9-6.8-2.7-3-.8-5.9-1.5-9.2-2.2-3.4-.6-6.7-1.5-10.1-2.7-3.4-1-6.6-2.6-9.3-4.4s-5-4.3-6.7-7.2c-1.7-3-2.6-6.7-2.6-11.2s1.4-9.5,4.1-13.7,6.8-7.4,12.4-9.8c5.5-2.5,12.4-3.6,20.6-3.6s11,.6,16.2,1.8c5.4,1.2,10.1,3.1,14.1,5.7l-7.2,17.5c-4-2.3-8-3.9-12-4.9s-7.7-1.5-11.5-1.5-5.9.3-8,1-3.4,1.7-4.3,2.7-1.4,2.3-1.4,3.6c0,1.9.9,3.4,2.6,4.4,1.8,1,4,1.9,6.8,2.6,2.7.6,5.9,1.4,9.3,2.2,3.4.8,6.7,1.7,10.1,2.7,3.4,1,6.4,2.5,9.3,4.3,3,1.8,5.2,4.1,6.8,7.1,1.8,3,2.6,6.6,2.6,11s-1.4,9.3-4.1,13.4-6.8,7.5-12.4,9.9c-5.5,2.5-12.4,3.6-20.8,3.6h.3Z"/>
      <path class="st1" d="M600.9,652.2v-65.1h-25.8v-18.8h75.3v18.8h-25.7v65.1h-23.9Z"/>
      <path class="st1" d="M645,652.2l37.1-84h23.3l37.1,84h-24.8l-29-72.3h9.3l-29,72.3h-24.4.3ZM665.3,635.9l6.1-17.4h41l6.1,17.4h-53.4.3Z"/>
    </g>
  </g>
</svg>