<?xml version="1.0" encoding="UTF-8"?>
<svg id="Layer_1" xmlns="http://www.w3.org/2000/svg" version="1.1" viewBox="0 0 842 842">
  <!-- Generator: Adobe Illustrator 30.1.0, SVG Export Plug-In . SVG Version: 2.1.1 Build 136)  -->
  <defs>
    <style>
      .st0 {
        font-size: 35.9px;
        letter-spacing: 0em;
      }

      .st0, .st1, .st2 {
        fill: #fff;
      }

      .st0, .st2 {
        font-family: RaceSportRegular, 'Race Sport';
      }

      .st2 {
        font-size: 263.3px;
      }
    </style>
  </defs>
  <g>
    <path class="st1" d="M683.4,209.7c-184.6,6.3-369.1,12.7-553.7,19,.7,50.7,1.5,101.4,2.2,152.1,84.6-45,193.5-93,324.8-128.2,82.6-22.2,159.1-35.3,226.6-42.9Z"/>
    <path class="st1" d="M300.8,126.6c2.1,3.4,12,20.3,6.6,40.3-5.5,20.2-24.6,35.5-47.9,37.8,117.9-3.4,235.8-6.7,353.8-10.1-104.2-22.7-208.3-45.4-312.5-68.1Z"/>
    <path class="st1" d="M628.9,234.5c-56.5,7.8-123.6,21.8-196.9,47-50.5,17.4-95,37.1-133.3,56.6,19.7,18.4,39.5,36.9,59.2,55.3,24.1-25.2,56-54.1,96.8-81.2,65.8-43.8,128.8-65.9,174.2-77.7Z"/>
    <circle class="st1" cx="741.1" cy="203.1" r="24.1"/>
  </g>
  <text class="st2" transform="translate(95 626.8)"><tspan x="0" y="0">PIS</tspan></text>
  <text class="st0" transform="translate(96.5 676.2)"><tspan x="0" y="0">consulting services</tspan></text>
</svg>