<?xml version="1.0" encoding="UTF-8"?>
<svg id="Layer_1" xmlns="http://www.w3.org/2000/svg" version="1.1" viewBox="0 0 842 842">
  <!-- Generator: Adobe Illustrator 30.1.0, SVG Export Plug-In . SVG Version: 2.1.1 Build 136)  -->
  <defs>
    <style>
      .st0 {
        font-family: Poppins-SemiBold, Poppins;
        font-size: 26.6px;
        font-weight: 600;
        letter-spacing: 0em;
      }

      .st0, .st1 {
        fill: #fff;
      }
    </style>
  </defs>
  <g>
    <g>
      <path class="st1" d="M325.2,125.9h147.7v68.4c0,21-17.1,38.1-38.1,38.1h-109.6v-106.5h0Z" transform="translate(-37.9 199.1) rotate(-26.8)"/>
      <g>
        <path class="st1" d="M185.3,326.6h219.7v83c0,13-10.5,23.5-23.5,23.5h-230.1v-72.7c0-18.7,15.2-33.9,33.9-33.9Z" transform="translate(-141.6 166.8) rotate(-26.9)"/>
        <path class="st1" d="M200.5,237.6h192.9c21,0,38.1,17.1,38.1,38.1v68.4h-209c-12.2,0-22.1-9.9-22.1-22.1v-84.4h0Z" transform="translate(199.4 704.2) rotate(-116.9)"/>
      </g>
    </g>
    <g>
      <path class="st1" d="M340.9,360h158.8v81.8c0,18.9-15.3,34.3-34.3,34.3h-124.6v-116h0Z" transform="translate(973.1 632.2) rotate(156.3)"/>
      <g>
        <path class="st1" d="M537.9,139.8h92.8v116h-65.4c-15.1,0-27.4-12.3-27.4-27.4v-88.6h0Z" transform="translate(1198.8 143.8) rotate(156.3)"/>
        <path class="st1" d="M574.5,290.2l-55.8-126.9-106.2,46.7,16.8,38.2c5.9-2.6,13.1-6.6,20.3-13,3.5-3.1,6.5-6.2,8.9-9.2,9.6,1.6,20.2,2.9,31.6,3.4,21.3.9,40-1.1,55.1-3.9-21.3,9.4-42.7,18.7-64,28.1-.4-.4-3.4-3.2-7-2.6-4.2.8-7.3,6-5.7,9.7,1.4,3.4,6.3,4.8,9.8,3.3,4.1-1.8,4.6-6.9,4.6-7.1,21.5-9.4,43-18.8,64.5-28.1-11.8,8.8-25.2,20.4-38.5,35.6-8.4,9.6-15.3,19-21.1,27.8-3.6-.1-7.5,0-11.6.3-10,1-18.3,3.5-24.8,6.1l62.4,141.8,2.7-1.2c57.2-25.1,83.1-91.8,58-149Z"/>
      </g>
    </g>
  </g>
  <g>
    <path class="st1" d="M132.8,627.6c2,8.7,8.3,12.6,18.3,12.6s14.3-4,14.3-10.3-4.2-10.2-19.1-13.6c-23.7-5.6-29.5-14.2-29.5-25.9s11.3-25.5,32-25.5,32.3,12.4,33.6,25.2h-19c-.9-5.4-3.9-11.2-15.1-11.2s-12.2,3.2-12.2,9.3,3.7,8.5,17.8,11.8c25.3,6,30.9,15.4,30.9,27.7s-12,26.8-35,26.8-33.7-10.9-35.8-26.7h19Z"/>
    <path class="st1" d="M242.7,636.3c0,6.2.5,15.3.9,16.9h-17.3c-.5-1.3-.9-4.7-.9-6.4-2.4,3.7-6.8,7.9-18.4,7.9s-22.4-10.4-22.4-20.5c0-14.9,12-21.8,31.1-21.8h9.3v-4c0-4.6-1.7-9.2-10.1-9.2s-9.3,3.2-10.1,8h-17.2c1-11.6,8.2-21,28-20.9,17.5.1,27,6.9,27,22.5v27.5ZM225,623.4h-7.4c-10.9,0-14.9,3.3-14.9,9.6s2.9,8.7,9.4,8.7c11.5,0,12.9-8,12.9-16.6v-1.7Z"/>
    <path class="st1" d="M250.1,605.5c0-6.5,0-12.3-.1-17.7h17.7c.2,1.5.5,7.9.5,11.5,2.9-7.5,9.9-12.9,21-13v17.3c-13.1-.3-21,3.2-21,21.1v28.5h-18.1v-47.6Z"/>
    <path class="st1" d="M342.9,636.3c0,6.2.5,15.3.9,16.9h-17.3c-.5-1.3-.9-4.7-.9-6.4-2.4,3.7-6.8,7.9-18.4,7.9s-22.4-10.4-22.4-20.5c0-14.9,12-21.8,31.1-21.8h9.3v-4c0-4.6-1.7-9.2-10.1-9.2s-9.3,3.2-10.1,8h-17.2c1-11.6,8.2-21,28-20.9,17.5.1,27,6.9,27,22.5v27.5ZM325.3,623.4h-7.4c-10.9,0-14.9,3.3-14.9,9.6s2.9,8.7,9.4,8.7c11.5,0,12.9-8,12.9-16.6v-1.7Z"/>
    <path class="st1" d="M362.5,633.5c1.4,5.2,5.6,8.1,12.4,8.1s9.1-2.4,9.1-6.4-2.8-5.8-12.2-8.1c-21.3-5.2-24.8-11.8-24.8-21.1s6.8-19.8,26.5-19.8,26.5,10.8,27.1,19.7h-17.2c-.6-2.4-2.2-7-10.7-7s-7.9,2.7-7.9,5.6,2,4.8,12.6,7.3c21.8,5.1,24.9,12.5,24.9,22.1s-8.2,20.7-28.2,20.7-28-9.6-29.5-21.2h17.8Z"/>
    <path class="st1" d="M441.9,627.6c2,8.7,8.3,12.6,18.3,12.6s14.3-4,14.3-10.3-4.2-10.2-19.1-13.6c-23.7-5.6-29.5-14.2-29.5-25.9s11.3-25.5,32-25.5,32.3,12.4,33.6,25.2h-19c-.9-5.4-3.9-11.2-15.1-11.2s-12.2,3.2-12.2,9.3,3.7,8.5,17.8,11.8c25.3,6,30.9,15.4,30.9,27.7s-12,26.8-35,26.8-33.7-10.9-35.8-26.7h19Z"/>
    <path class="st1" d="M490.3,587.8h10.1v-17.7h18.1v17.7h12.8v13.6h-12.8v32.3c0,5,1.5,6.9,6.9,6.9s2.8,0,4.1-.2v12.4c-3.6,1.2-8.5,1.2-12.2,1.2-12.7,0-17-6.8-17-18.3v-34.4h-10.1v-13.6Z"/>
    <path class="st1" d="M589.7,634.2c0,6.3,0,13.1.1,19h-17.7c-.3-1.8-.4-5.3-.5-7.5-3.9,6.6-9.6,9.1-18,9.1-13.3,0-21.8-8.1-21.8-24.3v-42.6h18.1v38.9c0,7.2,2.2,13.2,10.1,13.2s11.7-4.4,11.7-17.3v-34.8h18.1v46.4Z"/>
    <path class="st1" d="M657.5,561v74.2c0,5.9,0,12,.1,18h-17.4c-.4-2-.7-5.3-.8-6.8-3.2,5.1-8.8,8.3-18.5,8.3-16.5,0-27-13.3-27-33.7s11.2-34.7,29.7-34.7,14.5,3.3,15.9,6.2v-31.5h18.1ZM612.4,620.5c0,12.7,5,19.6,13.8,19.6s13.9-10.4,13.9-19.8-1.6-19.6-13.4-19.6-14.3,7.4-14.3,19.8Z"/>
    <path class="st1" d="M664.5,561h18.1v16.1h-18.1v-16.1ZM664.5,587.8h18.1v65.3h-18.1v-65.3Z"/>
    <path class="st1" d="M750.7,620.4c0,19.8-11.8,34.3-32.5,34.3s-32.1-14.5-32.1-34,12.2-34.4,32.9-34.4,31.7,13.6,31.7,34.1ZM704.4,620.5c0,12.6,5.4,20,14.1,20s13.8-7.5,13.8-19.9-5-20.1-14-20.1-13.9,6.2-13.9,20Z"/>
  </g>
  <text class="st0" transform="translate(147.6 709.5)"><tspan x="0" y="0">PURELY CREATIVE , TECHNICALLY DRIVEN</tspan></text>
</svg>