<?xml version="1.0" encoding="UTF-8"?>
<svg id="Layer_1" xmlns="http://www.w3.org/2000/svg" version="1.1" viewBox="0 0 842 842">
  <!-- Generator: Adobe Illustrator 30.1.0, SVG Export Plug-In . SVG Version: 2.1.1 Build 136)  -->
  <defs>
    <style>
      .st0 {
        font-size: 28.6px;
        letter-spacing: .6em;
      }

      .st0, .st1 {
        font-family: Poppins-Regular, Poppins;
      }

      .st0, .st1, .st2 {
        fill: #fff;
      }

      .st1 {
        font-size: 236.9px;
        letter-spacing: 0em;
      }
    </style>
  </defs>
  <g>
    <text class="st1" transform="translate(94.7 662.5)"><tspan x="0" y="0">Tocen</tspan></text>
    <text class="st0" transform="translate(147.8 714.1)"><tspan x="0" y="0">PLAISIRS D’INTERIEUR</tspan></text>
  </g>
  <path class="st2" d="M428.6,132.8c7.6-10.1,15.6-18.4,23.4-25.3,64.4-56.7,153.8-48.1,184-43.8,1.9,29.5-5.9,49.8-11.8,61.1-26.6,51.5-96.3,79-174.8,68.3,0,83.1,0,166.1-.1,249.2-.7,2.5-2,6.1-4.6,9.6-5.5,7.5-13.2,10.1-16.1,11V132.8Z"/>
  <path class="st2" d="M421.9,40.2c-2.4,0-25.4-.2-32.9,13-8,14,2.3,41.9,33,57.3,30.6-15.4,40.8-43.4,32.8-57.4-7.5-13.1-30.4-13-32.9-12.9Z"/>
  <path class="st2" d="M387.9,211.8c-1.8-.2-41.4-2.8-77.3,33.3-24.1,24.2-37.1,56.3-33.5,82.8,26.7,2.2,58-12.2,81.1-37.4,34.4-37.5,30-76.8,29.8-78.7Z"/>
  <path class="st2" d="M416,132.8c-7.6-10.1-15.6-18.4-23.4-25.3-64.4-56.7-153.8-48.1-184-43.8-1.9,29.5,5.9,49.8,11.8,61.1,26.8,51.7,97.1,79.2,176.3,68.1,0,82.1,0,164.1-.1,246.2,0,2.4.1,7.5,3.3,12.8,5.3,8.7,14.5,10.6,16.1,11V132.8Z"/>
  <path class="st2" d="M456.5,211.8c1.8-.2,41.4-2.8,77.3,33.3,24.1,24.2,37.1,56.3,33.5,82.8-26.7,2.2-58-12.2-81.1-37.4-34.4-37.5-30-76.8-29.8-78.7Z"/>
</svg>