<?xml version="1.0" encoding="UTF-8"?>
<svg xmlns="http://www.w3.org/2000/svg" version="1.1" viewBox="0 0 842 842">
  <!-- Generator: Adobe Illustrator 30.1.0, SVG Export Plug-In . SVG Version: 2.1.1 Build 136)  -->
  <defs>
    <style>
      .st0 {
        font-family: Poppins-Black, Poppins;
        font-size: 201.8px;
        font-weight: 800;
        letter-spacing: 0em;
      }

      .st0, .st1, .st2, .st3, .st4 {
        fill: #fff;
      }

      .st2 {
        font-family: Poppins-Regular, Poppins;
        font-size: 20.1px;
        letter-spacing: .6em;
      }

      .st3 {
        font-family: Vortigra, Vortigra;
        font-size: 123.2px;
      }

      .st5 {
        display: none;
      }

      .st4 {
        font-family: Poppins-Medium, Poppins;
        font-size: 51.3px;
        font-weight: 500;
      }
    </style>
  </defs>
  <g id="Layer_1" class="st5">
    <g>
      <g>
        <rect class="st1" x="442.4" y="132.4" width="73.9" height="141.4"/>
        <rect class="st1" x="442.4" y="281.9" width="73.9" height="138.1"/>
        <rect class="st1" x="320.4" y="281.9" width="73.9" height="138.1"/>
        <rect class="st1" x="386" y="299.4" width="73.9" height="38.9" transform="translate(741.7 -104.1) rotate(90)"/>
        <rect class="st1" x="242.2" y="339" width="73.9" height="88.2" transform="translate(662.3 104) rotate(90)"/>
        <rect class="st1" x="344.9" y="175.3" width="73.9" height="123" transform="translate(618.6 -145.1) rotate(90)"/>
        <circle class="st1" cx="368.5" cy="130.2" r="47.1"/>
      </g>
      <text class="st0" transform="translate(36.5 632.4)"><tspan x="0" y="0">titanFit</tspan></text>
      <text class="st4" transform="translate(50.9 709.1)"><tspan x="0" y="0">PUSH LIMITS. BUILD STRENGTH.</tspan></text>
    </g>
  </g>
  <g id="Layer_2">
    <g>
      <text class="st2" transform="translate(194.8 735.1)"><tspan x="0" y="0">ELEGANCE IN EVERY DROP</tspan></text>
      <text class="st3" transform="translate(151.7 700.8)"><tspan x="0" y="0">verdana</tspan></text>
      <path class="st1" d="M429.3,394.2c6.7-2.2,36.1-10.8,66.3,4.2,19.2,9.6,29.4,24,33.5,30.1,8.4,12.2,16,29.6,12.3,32.4-3.3,2.5-14.6-8.1-22.7-14.6-17.1-13.7-44.5-28.4-89.8-33.5,19.2-1.1,45.9.5,71.3,15,20.4,11.6,32.8,27.4,35.1,25.4,2.4-2.1-8.3-23.5-25.8-38.2-26.7-22.4-61.4-22.5-80.2-20.8Z"/>
      <path class="st1" d="M329.7,558.6c3.9-5.7,12.4-16.4,26.6-20.4,7.5-2.1,13.7-1.6,23.1-.8,8.6.8,20.1,2.7,33.2,7.3-12.4-1.5-30.4-2.1-51.3,2.7-12.7,2.9-23.3,7.1-31.6,11.2Z"/>
      <path class="st1" d="M552.9,449.3c-1.5-5.2-15.4-51.1-55.5-68.8-22.4-9.9-31.4-1.5-54.4-13.9-21.6-11.7-32.9-29.7-39.3-39.9-17.5-28-20.3-55.1-24.3-95.4-2.3-22.8-1.3-43.8-1.2-45.7.2-3.7.4-6.7.6-8.7,11.9,3.6,19.2,1.8,23.7-.6,11.9-6.3,11.4-20.5,26.6-35.3,5.6-5.5,11.2-8.9,15-11-13.3,3.6-29.7,9.7-46.8,20.2-6.7,4.2-12.7,8.5-17.9,12.7,5-5.1,14.2-16.1,19.1-33,4.3-15,3.1-27.8,1.9-34.7-4.9,12.6-11.3,20.1-16.2,24.7-8.5,7.9-13.2,7.5-18.5,15.4-7.2,10.6-2.5,16.8-9.3,23.1-7.2,6.7-13.2.2-23.9,7.7-5,3.6-9.3,9-16.2,17.7-3.8,4.8-3,4.3-4.1,5.4-11.1,10.9-30,4.5-31.6,9.5-.5,1.6,1,3.3,3.6,6.2,9.1,10.1,22.6,13,27.8,14.1,2.1.5,4.3.8,7.5,2.1,0,0,5.8,2.3,10.5,6.2,9.4,7.7,11.7,26.5,11.8,27.8,2.9,25.4-1.4,47.6-2.3,51.9-8.8,43.7-23,65.3-11.6,78.1.4.4,1.6,1.8,4.9,3.9,22.9,14.5,55.2,6.5,74,3.1,34.5-6.3,71.6-13.1,100,3.9,32.1,19.2,44.4,63.6,36.2,70.2-8.6,6.9-32.4-30.9-85.6-43.7-12.3-3-69.8-15.1-113.7,20.2-23.2,18.6-32.2,42.1-35.5,50.9-15.2,41.1-3.9,77.5,0,88.7,8.5-17.7,22.9-40.1,46.8-47.4,17.1-5.3,31.3-.6,44.5,2.9,48.1,12.5,126,14.3,150.9-19.7,15.9-21.7,6.8-53.3,2.3-68.8ZM330.2,192.2c-7.1,4.9-10.7,8.5-11.6,7.7-1-.9,1.9-7.3,6.9-11.6,7.3-6.2,16.8-5.8,20.8-5.4-4.1,1.9-9.8,4.9-16.2,9.3ZM547.2,491.4c-11,7.4-33.4-25.3-74.1-39-6.2-2.1-51.6-16.6-96.7,6.6-35.5,18.3-51.2,49.9-56.4,61.9,4.6-15.5,18.7-54.9,55.6-73.2,40.6-20.2,97.2-9,131.6,16,14.8,10.8,32,29,40.1,24,4-2.4,4.1-9.6,3.6-15.2.9,6.6,1.2,15.5-3.6,18.8Z"/>
    </g>
  </g>
</svg>