<svg xmlns="http://www.w3.org/2000/svg" version="1.1" xmlns:xlink="http://www.w3.org/1999/xlink" width="512" height="512" x="0" y="0" viewBox="0 0 24 24" style="enable-background:new 0 0 512 512" xml:space="preserve" class=""><g transform="matrix(6.123233995736766e-17,-1,1,6.123233995736766e-17,0.0000311732292175293,23.999028384685516)"><path d="M.998 12c0 .892.016 1.774.046 2.644.159 4.508 3.803 8.152 8.311 8.311a74.29 74.29 0 0 0 5.288 0c4.508-.159 8.152-3.803 8.311-8.311a74.29 74.29 0 0 0 0-5.288c-.159-4.509-3.803-8.153-8.312-8.312a74.29 74.29 0 0 0-5.288 0c-4.507.159-8.151 3.803-8.309 8.312A74.29 74.29 0 0 0 .999 12zm6.721-4.62a1.049 1.049 0 0 1 1.483.057l5.619 6.064.371-3.625c.027-.264.15-.496.331-.663a1.048 1.048 0 0 1 1.757.877l-.576 5.598a1.314 1.314 0 0 1-.424.932c-.261.242-.602.367-.887.352l-5.7.147a1.05 1.05 0 1 1-.055-2.098l3.643-.092-5.619-6.065a1.05 1.05 0 0 1 .056-1.484z" fill="#ffffff" opacity="1" data-original="#000000" class=""></path></g></svg>