<?xml version="1.0" encoding="UTF-8"?>
<svg id="Layer_2" data-name="Layer 2" xmlns="http://www.w3.org/2000/svg" viewBox="0 0 182.5 228.11">
  <defs>
    <style>
      .cls-1 {
        fill: #4a5534;
      }

      .cls-2 {
        fill: #383838;
      }
    </style>
  </defs>
  <g id="Layer_1-2" data-name="Layer 1">
    <g>
      <path class="cls-2" d="M0,82.98c12.17-9.41,24.33-18.82,36.5-28.23,12.17,22.62,24.33,45.24,36.5,67.86v37.07c-12.17,15.49-24.33,30.99-36.5,46.48-12.17-9.5-24.33-19.01-36.5-28.51,11.31-14.3,22.62-28.61,33.93-42.91C22.62,117.48,11.31,100.23,0,82.98Z"/>
      <path class="cls-2" d="M182.49,199.89c-12.17,9.41-24.33,18.82-36.5,28.23-12.16-22.62-24.33-45.25-36.49-67.87,0-12.36,0-24.71,0-37.07,12.17-15.49,24.34-30.98,36.5-46.47,12.17,9.51,24.33,19.01,36.5,28.52-11.31,14.3-22.62,28.61-33.94,42.91,11.31,17.25,22.62,34.5,33.93,51.76Z"/>
      <path class="cls-2" d="M59.31,68.15c9.12,24.24,18.25,48.47,27.37,72.71h9.12c11.03-24.24,22.05-48.47,33.08-72.71H59.31Z"/>
      <circle class="cls-1" cx="90.96" cy="27.37" r="27.37"/>
    </g>
  </g>
</svg>