<svg xmlns="http://www.w3.org/2000/svg" version="1.1" xmlns:xlink="http://www.w3.org/1999/xlink" width="512" height="512" x="0" y="0" viewBox="0 0 512 512" style="enable-background:new 0 0 512 512" xml:space="preserve" class=""><g><path d="M256 0C114.848 0 0 114.848 0 256v240c0 8.832 7.168 16 16 16h240c141.152 0 256-114.848 256-256S397.152 0 256 0zm0 480H32V256C32 132.48 132.48 32 256 32s224 100.48 224 224-100.48 224-224 224z" fill="#ffffff" opacity="1" data-original="#000000" class=""></path><path d="M272 288H144c-8.832 0-16 7.168-16 16s7.168 16 16 16h128c8.832 0 16-7.168 16-16s-7.168-16-16-16zM368 192H144c-8.832 0-16 7.168-16 16s7.168 16 16 16h224c8.832 0 16-7.168 16-16s-7.168-16-16-16z" fill="#ffffff" opacity="1" data-original="#000000" class=""></path></g></svg>