<svg xmlns="http://www.w3.org/2000/svg" version="1.1" xmlns:xlink="http://www.w3.org/1999/xlink" width="512" height="512" x="0" y="0" viewBox="0 0 512.599 512.599" style="enable-background:new 0 0 512 512" xml:space="preserve" class=""><g><path d="M457.21 512.599H55.389C24.799 512.599 0 487.8 0 457.21V55.389C0 24.799 24.799 0 55.389 0h401.82c30.591 0 55.389 24.799 55.389 55.389v401.82c.001 30.591-24.798 55.39-55.388 55.39z" fill="#ffffff" opacity="1" data-original="#000000" class=""></path><path fill="#000000" fill-rule="evenodd" d="M256.299 60.299c-108.2 0-196 87.8-196 196s87.8 196 196 196c107.99 0 196-87.8 196-196s-88.01-196-196-196zm129.46 90.35c23.39 28.48 37.42 64.83 37.84 104.16-5.53-1.06-60.8-12.33-116.49-5.31-1.28-2.77-2.34-5.74-3.62-8.72-3.4-8.08-7.22-16.37-11.05-24.23 61.65-25.09 89.71-61.23 93.32-65.9zm-129.46-61.44c42.52 0 81.42 15.94 110.97 42.09-2.98 4.25-28.28 38.05-87.8 60.38-27.42-50.39-57.82-91.63-62.5-98 12.54-2.98 25.721-4.47 39.33-4.47zm-71.21 15.73c4.46 5.95 34.22 47.41 62.07 96.73-78.23 20.83-147.32 20.4-154.76 20.4 10.84-51.87 45.92-95.02 92.69-117.13zm-96.3 151.57v-5.1c7.22.21 88.43 1.28 171.97-23.81 4.89 9.36 9.36 18.92 13.61 28.49-2.13.64-4.46 1.27-6.59 1.91-86.31 27.85-132.23 103.95-136.05 110.33-26.58-29.55-42.94-68.88-42.94-111.82zm167.51 167.3c-38.69 0-74.4-13.18-102.68-35.28 2.98-6.17 36.99-71.64 131.38-104.59.42-.22.64-.22 1.06-.43 23.6 61.01 33.16 112.24 35.72 126.91-20.2 8.72-42.31 13.39-65.48 13.39zm93.32-28.69c-1.7-10.21-10.63-59.1-32.52-119.26 52.51-8.29 98.42 5.31 104.16 7.23-7.22 46.55-34.01 86.73-71.64 112.03z" clip-rule="evenodd" opacity="1" data-original="#ffffff" class=""></path></g></svg>