<?xml version="1.0" encoding="UTF-8"?>
<!-- Generator: Adobe Illustrator 26.0.1, SVG Export Plug-In . SVG Version: 6.00 Build 0)  -->
<svg xmlns="http://www.w3.org/2000/svg" xmlns:xlink="http://www.w3.org/1999/xlink" version="1.1" id="Capa_1" x="0px" y="0px" viewBox="0 0 512 512" style="enable-background:new 0 0 512 512;" xml:space="preserve" width="512" height="512">
<g>
	<path d="M478.64,33.6C453.59,8.55,420.31,0.24,385.81,0.24H126.18c-33.9,0-68.28,8.34-92.82,32.88C8.06,58.42,1.43,91.52,0,125.95   v259.62c0,32.93,8.29,69.24,33.36,92.83c25.05,25.05,58.33,33.36,92.83,33.36h259.62c46.71,0,89.43-18.22,112.65-60.44   c10.79-19.61,13.54-43.7,13.54-65.75V126.43C512,93.11,503.99,57.46,478.64,33.6z M430.78,418.45   c-23.21-44.48-65.76-33.36-87.51-22.24c-1.94,0.96-3.87,2.41-5.8,3.38l0,0c-44.96,24.17-106.37,26.11-167.29,0   c-51.25-22.24-93.31-59.95-120.38-103.46c14.02,10.15,29.01,19.34,44.96,26.59c64.3,30.46,129.09,28.04,175.02,0   c-65.27-50.28-119.9-115.55-161.48-168.73c-7.74-9.19-14.99-19.34-21.27-29.5c50.28,45.45,129.08,102.99,157.61,118.94   c-59.95-63.34-113.13-141.66-110.72-139.24c94.76,95.24,182.27,149.39,182.27,149.39c3.39,1.45,5.8,2.9,7.74,4.35   c1.93-4.83,3.38-9.67,4.83-14.5c14.99-55.12-1.93-118.45-40.61-170.67c87.99,52.7,139.73,153.26,118.45,237.87   c-0.48,1.94-0.96,3.87-1.45,5.8C449.63,370.58,437.54,428.6,430.78,418.45z"/>
</g>















</svg>
